<svg width="26" height="26" viewBox="0 0 26 26" fill="none" xmlns="http://www.w3.org/2000/svg">
<path d="M16.2493 8.6085C15.918 8.6085 15.6493 8.87713 15.6493 9.2085C15.6493 9.53987 15.918 9.8085 16.2493 9.8085V8.6085ZM20.5827 9.8085C20.9141 9.8085 21.1827 9.53987 21.1827 9.2085C21.1827 8.87713 20.9141 8.6085 20.5827 8.6085V9.8085ZM21.1827 9.2085C21.1827 8.87713 20.9141 8.6085 20.5827 8.6085C20.2513 8.6085 19.9827 8.87713 19.9827 9.2085H21.1827ZM19.9827 13.5418C19.9827 13.8732 20.2513 14.1418 20.5827 14.1418C20.9141 14.1418 21.1827 13.8732 21.1827 13.5418H19.9827ZM21.0069 9.63276C21.2413 9.39845 21.2413 9.01855 21.0069 8.78423C20.7726 8.54992 20.3927 8.54992 20.1584 8.78423L21.0069 9.63276ZM12.9993 16.7918L12.5751 17.2161C12.8094 17.4504 13.1893 17.4504 13.4236 17.2161L12.9993 16.7918ZM9.74935 13.5418L10.1736 13.1176C9.9393 12.8833 9.5594 12.8833 9.32508 13.1176L9.74935 13.5418ZM4.99175 17.4509C4.75744 17.6852 4.75744 18.0651 4.99175 18.2994C5.22607 18.5337 5.60597 18.5337 5.84028 18.2994L4.99175 17.4509ZM16.2493 9.8085H20.5827V8.6085H16.2493V9.8085ZM19.9827 9.2085V13.5418H21.1827V9.2085H19.9827ZM20.1584 8.78423L12.5751 16.3676L13.4236 17.2161L21.0069 9.63276L20.1584 8.78423ZM13.4236 16.3676L10.1736 13.1176L9.32508 13.9661L12.5751 17.2161L13.4236 16.3676ZM9.32508 13.1176L4.99175 17.4509L5.84028 18.2994L10.1736 13.9661L9.32508 13.1176Z" fill="white"/>
</svg>
