<svg width="26" height="26" viewBox="0 0 26 26" fill="none" xmlns="http://www.w3.org/2000/svg">
<path fill-rule="evenodd" clip-rule="evenodd" d="M5.41602 14.034C5.42944 15.21 5.90953 16.3325 6.75065 17.1545C7.59177 17.9765 8.725 18.4307 9.90102 18.4171H12.0742C12.6651 18.4176 13.2302 18.6595 13.6385 19.0866L14.7966 20.2978C14.9798 20.4834 15.2297 20.5878 15.4905 20.5878C15.7512 20.5878 16.0012 20.4834 16.1843 20.2978L17.9827 18.4171L18.5731 17.7585C18.6819 17.6404 18.8004 17.5317 18.9273 17.4335C19.9705 16.6135 20.5805 15.3608 20.5827 14.034V8.7148C20.5535 6.2667 18.5458 4.30551 16.0977 4.3338H9.90102C7.45291 4.30551 5.44516 6.2667 5.41602 8.7148V14.034Z" stroke="white" stroke-width="1.2" stroke-linecap="round" stroke-linejoin="round"/>
<path d="M16.8066 13.2721C16.9304 12.9648 16.7815 12.6152 16.4742 12.4914C16.1668 12.3676 15.8172 12.5165 15.6934 12.8238L16.8066 13.2721ZM15.2923 14.3545L15.6713 14.8196L15.6736 14.8178L15.2923 14.3545ZM10.686 14.3209L10.2976 14.7782L10.3003 14.7805L10.686 14.3209ZM10.3101 12.7853C10.1914 12.4759 9.84433 12.3214 9.53497 12.4402C9.22561 12.5589 9.0711 12.906 9.18986 13.2154L10.3101 12.7853ZM10.35 8.66699C10.35 8.33562 10.0814 8.06699 9.75 8.06699C9.41863 8.06699 9.15 8.33562 9.15 8.66699H10.35ZM9.15 9.75033C9.15 10.0817 9.41863 10.3503 9.75 10.3503C10.0814 10.3503 10.35 10.0817 10.35 9.75033H9.15ZM16.85 8.66699C16.85 8.33562 16.5814 8.06699 16.25 8.06699C15.9186 8.06699 15.65 8.33562 15.65 8.66699H16.85ZM15.65 9.75033C15.65 10.0817 15.9186 10.3503 16.25 10.3503C16.5814 10.3503 16.85 10.0817 16.85 9.75033H15.65ZM15.6934 12.8238C15.526 13.2395 15.257 13.6065 14.9111 13.8912L15.6736 14.8178C16.1746 14.4055 16.5642 13.874 16.8066 13.2721L15.6934 12.8238ZM14.9133 13.8894C13.792 14.803 12.1797 14.7913 11.0717 13.8613L10.3003 14.7805C11.8493 16.0807 14.1035 16.0971 15.6713 14.8196L14.9133 13.8894ZM11.0744 13.8636C10.7333 13.5739 10.4705 13.2031 10.3101 12.7853L9.18986 13.2154C9.42231 13.8209 9.80321 14.3583 10.2976 14.7782L11.0744 13.8636ZM9.15 8.66699V9.75033H10.35V8.66699H9.15ZM15.65 8.66699V9.75033H16.85V8.66699H15.65Z" fill="white"/>
</svg>
