<svg width="126" height="12" viewBox="0 0 126 12" fill="none" xmlns="http://www.w3.org/2000/svg">
<g id="EmeraldPartners">
<path d="M0.474609 11.2694V0.0805664H7.89769V1.77965H2.54215V4.81724H7.51317V6.51632H2.54215V9.5703H7.94228V11.2694H0.474609Z" fill="white"/>
<path d="M9.91787 11.2694V2.87777H11.8461V4.30369H11.9464C12.1247 3.82292 12.4201 3.44777 12.8325 3.17825C13.2449 2.90509 13.7372 2.7685 14.3093 2.7685C14.8889 2.7685 15.3774 2.90691 15.775 3.18371C16.1762 3.45688 16.4586 3.8302 16.622 4.30369H16.7112C16.9007 3.83749 17.2202 3.46598 17.6698 3.18918C18.123 2.90873 18.6599 2.7685 19.2803 2.7685C20.068 2.7685 20.7107 3.01253 21.2085 3.50058C21.7064 3.98864 21.9553 4.70069 21.9553 5.63673V11.2694H19.9323V5.94267C19.9323 5.42184 19.7912 5.04123 19.5088 4.80085C19.2264 4.55682 18.8809 4.43481 18.4722 4.43481C17.9855 4.43481 17.6047 4.58414 17.3298 4.8828C17.0586 5.17781 16.923 5.56206 16.923 6.03555V11.2694H14.9446V5.86072C14.9446 5.4273 14.8109 5.0813 14.5434 4.8227C14.2796 4.5641 13.9341 4.43481 13.5068 4.43481C13.217 4.43481 12.9532 4.50765 12.7155 4.65334C12.4777 4.79538 12.2882 4.99752 12.147 5.25976C12.0058 5.51836 11.9353 5.82066 11.9353 6.16667V11.2694H9.91787Z" fill="white"/>
<path d="M27.7915 11.4333C26.9333 11.4333 26.1921 11.2585 25.5679 10.9088C24.9475 10.5555 24.4701 10.0565 24.1357 9.41186C23.8013 8.76355 23.6341 8.00051 23.6341 7.12274C23.6341 6.25954 23.8013 5.50197 24.1357 4.85002C24.4738 4.19442 24.9456 3.68451 25.5512 3.3203C26.1568 2.95243 26.8683 2.7685 27.6856 2.7685C28.2132 2.7685 28.711 2.85227 29.1792 3.01981C29.651 3.18371 30.0671 3.43867 30.4275 3.78468C30.7916 4.13068 31.0777 4.57139 31.2857 5.10679C31.4938 5.63855 31.5978 6.27229 31.5978 7.00801V7.61444H24.5815V6.2814H29.664C29.6603 5.90261 29.5767 5.56571 29.4132 5.27069C29.2497 4.97203 29.0213 4.73711 28.7278 4.56593C28.438 4.39474 28.0999 4.30915 27.7135 4.30915C27.3011 4.30915 26.9389 4.40749 26.6268 4.60417C26.3147 4.7972 26.0713 5.05216 25.8967 5.36903C25.7258 5.68226 25.6385 6.02644 25.6348 6.40159V7.56527C25.6348 8.05332 25.7258 8.47218 25.9079 8.82183C26.0899 9.16783 26.3444 9.43371 26.6714 9.61947C26.9983 9.80158 27.381 9.89263 27.8194 9.89263C28.1129 9.89263 28.3785 9.85257 28.6163 9.77244C28.8541 9.68867 29.0603 9.56665 29.2349 9.4064C29.4095 9.24614 29.5414 9.04764 29.6306 8.8109L31.5142 9.0185C31.3953 9.50656 31.1687 9.93269 30.8343 10.2969C30.5036 10.6575 30.0801 10.9379 29.5637 11.1383C29.0473 11.3349 28.4565 11.4333 27.7915 11.4333Z" fill="white"/>
<path d="M33.3045 11.2694V2.87777H35.2606V4.27637H35.3497C35.5058 3.79196 35.7733 3.41864 36.1522 3.1564C36.5349 2.89052 36.9714 2.75758 37.4619 2.75758C37.5733 2.75758 37.6978 2.76304 37.8352 2.77397C37.9764 2.78125 38.0935 2.794 38.1863 2.81221V4.63148C38.1009 4.60235 37.9653 4.57685 37.7795 4.555C37.5975 4.5295 37.421 4.51676 37.2501 4.51676C36.8823 4.51676 36.5516 4.59506 36.2581 4.75168C35.9683 4.90465 35.7398 5.11772 35.5727 5.39088C35.4055 5.66405 35.3219 5.9791 35.3219 6.33603V11.2694H33.3045Z" fill="white"/>
<path d="M41.8366 11.4387C41.2941 11.4387 40.8056 11.344 40.3709 11.1546C39.9399 10.9616 39.5981 10.6775 39.3455 10.3024C39.0966 9.92723 38.9721 9.46467 38.9721 8.9147C38.9721 8.44122 39.0613 8.04968 39.2396 7.74009C39.4179 7.43051 39.6613 7.18284 39.9697 6.99709C40.278 6.81134 40.6254 6.67111 41.0118 6.57641C41.4019 6.47808 41.805 6.40705 42.2211 6.36335C42.7227 6.31236 43.1295 6.26683 43.4416 6.22676C43.7537 6.18306 43.9803 6.1175 44.1215 6.03009C44.2664 5.93903 44.3388 5.79881 44.3388 5.60941V5.57663C44.3388 5.16507 44.2143 4.84637 43.9654 4.62056C43.7165 4.39474 43.358 4.28183 42.8899 4.28183C42.3957 4.28183 42.0038 4.38746 41.714 4.5987C41.4279 4.80995 41.2347 5.05944 41.1344 5.34718L39.2508 5.08494C39.3994 4.57503 39.6446 4.14889 39.9864 3.80653C40.3282 3.46052 40.7461 3.20192 41.2403 3.03074C41.7344 2.85592 42.2805 2.7685 42.8787 2.7685C43.2911 2.7685 43.7016 2.81585 44.1103 2.91055C44.519 3.00525 44.8924 3.16186 45.2305 3.38039C45.5686 3.59528 45.8398 3.88848 46.0441 4.25998C46.2522 4.63148 46.3562 5.09586 46.3562 5.65312V11.2694H44.4168V10.1166H44.3499C44.2273 10.3497 44.0546 10.5683 43.8317 10.7722C43.6125 10.9725 43.3357 11.1346 43.0013 11.2585C42.6707 11.3786 42.2824 11.4387 41.8366 11.4387ZM42.3604 9.98551C42.7654 9.98551 43.1165 9.9072 43.4137 9.75058C43.7109 9.59033 43.9394 9.37908 44.0992 9.11684C44.2626 8.85461 44.3444 8.56869 44.3444 8.25911V7.27025C44.2812 7.32124 44.1735 7.36859 44.0211 7.4123C43.8725 7.456 43.7053 7.49425 43.5196 7.52703C43.3338 7.55981 43.1499 7.58894 42.9679 7.61444C42.7858 7.63993 42.6279 7.66179 42.4942 7.68C42.1932 7.72006 41.9239 7.78562 41.6861 7.87668C41.4483 7.96773 41.2607 8.09521 41.1232 8.25911C40.9858 8.41936 40.917 8.62697 40.917 8.88192C40.917 9.24614 41.0527 9.52113 41.3239 9.70688C41.5951 9.89263 41.9406 9.98551 42.3604 9.98551Z" fill="white"/>
<path d="M50.4021 0.0805664V11.2694H48.3847V0.0805664H50.4021Z" fill="white"/>
<path d="M55.6532 11.4169C54.9807 11.4169 54.3788 11.2475 53.8475 10.9088C53.3163 10.5701 52.8964 10.0784 52.5881 9.43371C52.2797 8.78905 52.1255 8.00597 52.1255 7.0845C52.1255 6.1521 52.2816 5.36539 52.5936 4.72436C52.9094 4.07969 53.3348 3.59346 53.8698 3.26566C54.4048 2.93422 55.0011 2.7685 55.6587 2.7685C56.1603 2.7685 56.5727 2.85227 56.8959 3.01981C57.2191 3.18371 57.4755 3.38221 57.665 3.61531C57.8544 3.84477 58.0012 4.06148 58.1052 4.26544H58.1888V0.0805664H60.2118V11.2694H58.2278V9.94726H58.1052C58.0012 10.1512 57.8507 10.3679 57.6538 10.5974C57.4569 10.8232 57.1968 11.0162 56.8736 11.1765C56.5504 11.3368 56.1436 11.4169 55.6532 11.4169ZM56.216 9.79429C56.6433 9.79429 57.0074 9.68138 57.3083 9.45557C57.6092 9.22611 57.8377 8.90742 57.9938 8.49949C58.1498 8.09157 58.2278 7.61626 58.2278 7.07357C58.2278 6.53089 58.1498 6.05922 57.9938 5.65858C57.8414 5.25794 57.6148 4.94653 57.3139 4.72436C57.0167 4.50219 56.6507 4.3911 56.216 4.3911C55.7665 4.3911 55.3912 4.50583 55.0903 4.73529C54.7894 4.96475 54.5627 5.28162 54.4104 5.6859C54.2581 6.09018 54.1819 6.55274 54.1819 7.07357C54.1819 7.59805 54.2581 8.06607 54.4104 8.47764C54.5664 8.88556 54.7949 9.2079 55.0959 9.44464C55.4005 9.67774 55.7739 9.79429 56.216 9.79429Z" fill="white"/>
<path d="M62.4507 11.2694V0.0805664H66.7307C67.6075 0.0805664 68.3431 0.240823 68.9375 0.561336C69.5357 0.881849 69.9871 1.32255 70.2917 1.88345C70.6001 2.44071 70.7543 3.07445 70.7543 3.78468C70.7543 4.50219 70.6001 5.13957 70.2917 5.69683C69.9834 6.25408 69.5282 6.69297 68.9264 7.01348C68.3245 7.33035 67.5833 7.48878 66.7028 7.48878H63.8662V5.82248H66.4242C66.9369 5.82248 67.3567 5.73507 67.6836 5.56024C68.0106 5.38542 68.2521 5.14503 68.4081 4.83909C68.5678 4.53315 68.6477 4.18167 68.6477 3.78468C68.6477 3.38768 68.5678 3.03803 68.4081 2.73572C68.2521 2.43342 68.0087 2.1985 67.678 2.03096C67.3511 1.85978 66.9294 1.77419 66.413 1.77419H64.5182V11.2694H62.4507Z" fill="white"/>
<path d="M74.7709 11.4387C74.2285 11.4387 73.74 11.344 73.3053 11.1546C72.8743 10.9616 72.5325 10.6775 72.2799 10.3024C72.0309 9.92723 71.9065 9.46467 71.9065 8.9147C71.9065 8.44122 71.9956 8.04968 72.174 7.74009C72.3523 7.43051 72.5957 7.18284 72.904 6.99709C73.2124 6.81134 73.5598 6.67111 73.9462 6.57641C74.3363 6.47808 74.7394 6.40705 75.1555 6.36335C75.657 6.31236 76.0639 6.26683 76.3759 6.22676C76.688 6.18306 76.9146 6.1175 77.0558 6.03009C77.2007 5.93903 77.2732 5.79881 77.2732 5.60941V5.57663C77.2732 5.16507 77.1487 4.84637 76.8998 4.62056C76.6509 4.39474 76.2923 4.28183 75.8242 4.28183C75.3301 4.28183 74.9381 4.38746 74.6483 4.5987C74.3623 4.80995 74.1691 5.05944 74.0688 5.34718L72.1851 5.08494C72.3337 4.57503 72.5789 4.14889 72.9207 3.80653C73.2625 3.46052 73.6805 3.20192 74.1746 3.03074C74.6688 2.85592 75.2149 2.7685 75.8131 2.7685C76.2255 2.7685 76.636 2.81585 77.0447 2.91055C77.4534 3.00525 77.8267 3.16186 78.1648 3.38039C78.5029 3.59528 78.7741 3.88848 78.9785 4.25998C79.1865 4.63148 79.2906 5.09586 79.2906 5.65312V11.2694H77.3512V10.1166H77.2843C77.1617 10.3497 76.9889 10.5683 76.766 10.7722C76.5468 10.9725 76.2701 11.1346 75.9357 11.2585C75.605 11.3786 75.2168 11.4387 74.7709 11.4387ZM75.2948 9.98551C75.6998 9.98551 76.0508 9.9072 76.3481 9.75058C76.6453 9.59033 76.8738 9.37908 77.0335 9.11684C77.197 8.85461 77.2787 8.56869 77.2787 8.25911V7.27025C77.2156 7.32124 77.1078 7.36859 76.9555 7.4123C76.8069 7.456 76.6397 7.49425 76.4539 7.52703C76.2682 7.55981 76.0843 7.58894 75.9022 7.61444C75.7202 7.63993 75.5623 7.66179 75.4285 7.68C75.1276 7.72006 74.8582 7.78562 74.6205 7.87668C74.3827 7.96773 74.1951 8.09521 74.0576 8.25911C73.9202 8.41936 73.8514 8.62697 73.8514 8.88192C73.8514 9.24614 73.987 9.52113 74.2582 9.70688C74.5294 9.89263 74.875 9.98551 75.2948 9.98551Z" fill="white"/>
<path d="M81.3191 11.2694V2.87777H83.2752V4.27637H83.3643C83.5204 3.79196 83.7879 3.41864 84.1668 3.1564C84.5495 2.89052 84.986 2.75758 85.4765 2.75758C85.5879 2.75758 85.7124 2.76304 85.8498 2.77397C85.991 2.78125 86.108 2.794 86.2009 2.81221V4.63148C86.1155 4.60235 85.9799 4.57685 85.7941 4.555C85.6121 4.5295 85.4356 4.51676 85.2647 4.51676C84.8969 4.51676 84.5662 4.59506 84.2727 4.75168C83.9829 4.90465 83.7544 5.11772 83.5872 5.39088C83.4201 5.66405 83.3365 5.9791 83.3365 6.33603V11.2694H81.3191Z" fill="white"/>
<path d="M92.2754 2.87777V4.40749H87.3545V2.87777H92.2754ZM88.5694 0.86728H90.5868V8.74534C90.5868 9.01122 90.6277 9.21518 90.7094 9.35723C90.7948 9.49563 90.9063 9.59033 91.0438 9.64132C91.1812 9.69231 91.3336 9.7178 91.5007 9.7178C91.6271 9.7178 91.7422 9.7087 91.8463 9.69049C91.954 9.67228 92.0357 9.65589 92.0915 9.64132L92.4314 11.1874C92.3237 11.2239 92.1695 11.2639 91.9689 11.3076C91.772 11.3513 91.5305 11.3768 91.2444 11.3841C90.7391 11.3987 90.284 11.324 89.879 11.1601C89.4741 10.9926 89.1527 10.734 88.9149 10.3843C88.6809 10.0347 88.5657 9.59761 88.5694 9.07314V0.86728Z" fill="white"/>
<path d="M95.98 6.35242V11.2694H93.9626V2.87777H95.8908V4.30369H95.9911C96.188 3.83384 96.5019 3.46052 96.9329 3.18371C97.3676 2.90691 97.9045 2.7685 98.5435 2.7685C99.1342 2.7685 99.6488 2.89234 100.087 3.14001C100.529 3.38768 100.871 3.74643 101.113 4.21627C101.358 4.68612 101.479 5.25612 101.475 5.92628V11.2694H99.4574V6.23223C99.4574 5.67133 99.3088 5.23245 99.0116 4.91558C98.7181 4.5987 98.3113 4.44027 97.7911 4.44027C97.4382 4.44027 97.1243 4.51676 96.8493 4.66973C96.5781 4.81906 96.3645 5.03577 96.2084 5.31986C96.0561 5.60395 95.98 5.94814 95.98 6.35242Z" fill="white"/>
<path d="M107.315 11.4333C106.457 11.4333 105.716 11.2585 105.092 10.9088C104.471 10.5555 103.994 10.0565 103.659 9.41186C103.325 8.76355 103.158 8.00051 103.158 7.12274C103.158 6.25954 103.325 5.50197 103.659 4.85002C103.997 4.19442 104.469 3.68451 105.075 3.3203C105.68 2.95243 106.392 2.7685 107.209 2.7685C107.737 2.7685 108.235 2.85227 108.703 3.01981C109.175 3.18371 109.591 3.43867 109.951 3.78468C110.315 4.13068 110.601 4.57139 110.809 5.10679C111.017 5.63855 111.121 6.27229 111.121 7.00801V7.61444H104.105V6.2814H109.188C109.184 5.90261 109.1 5.56571 108.937 5.27069C108.773 4.97203 108.545 4.73711 108.251 4.56593C107.962 4.39474 107.624 4.30915 107.237 4.30915C106.825 4.30915 106.463 4.40749 106.15 4.60417C105.838 4.7972 105.595 5.05216 105.42 5.36903C105.25 5.68226 105.162 6.02644 105.158 6.40159V7.56527C105.158 8.05332 105.25 8.47218 105.432 8.82183C105.614 9.16783 105.868 9.43371 106.195 9.61947C106.522 9.80158 106.905 9.89263 107.343 9.89263C107.637 9.89263 107.902 9.85257 108.14 9.77244C108.378 9.68867 108.584 9.56665 108.759 9.4064C108.933 9.24614 109.065 9.04764 109.154 8.8109L111.038 9.0185C110.919 9.50656 110.692 9.93269 110.358 10.2969C110.027 10.6575 109.604 10.9379 109.087 11.1383C108.571 11.3349 107.98 11.4333 107.315 11.4333Z" fill="white"/>
<path d="M112.828 11.2694V2.87777H114.784V4.27637H114.873C115.029 3.79196 115.297 3.41864 115.676 3.1564C116.059 2.89052 116.495 2.75758 116.986 2.75758C117.097 2.75758 117.221 2.76304 117.359 2.77397C117.5 2.78125 117.617 2.794 117.71 2.81221V4.63148C117.625 4.60235 117.489 4.57685 117.303 4.555C117.121 4.5295 116.945 4.51676 116.774 4.51676C116.406 4.51676 116.075 4.59506 115.782 4.75168C115.492 4.90465 115.264 5.11772 115.096 5.39088C114.929 5.66405 114.846 5.9791 114.846 6.33603V11.2694H112.828Z" fill="white"/>
<path d="M125.816 5.09586L123.977 5.29254C123.925 5.11043 123.834 4.93925 123.704 4.77899C123.577 4.61874 123.406 4.48944 123.191 4.3911C122.975 4.29276 122.712 4.24359 122.4 4.24359C121.98 4.24359 121.627 4.33282 121.341 4.51129C121.058 4.68976 120.919 4.92104 120.923 5.20513C120.919 5.44916 121.01 5.64766 121.196 5.80063C121.385 5.9536 121.697 6.07926 122.132 6.1776L123.592 6.48354C124.402 6.65472 125.004 6.92606 125.398 7.29757C125.795 7.66907 125.996 8.1553 126 8.75627C125.996 9.28438 125.838 9.75058 125.526 10.1549C125.218 10.5555 124.789 10.8687 124.239 11.0946C123.689 11.3204 123.057 11.4333 122.344 11.4333C121.296 11.4333 120.453 11.2184 119.814 10.7886C119.175 10.3552 118.794 9.75241 118.671 8.98026L120.639 8.79451C120.728 9.1733 120.917 9.45921 121.207 9.65225C121.497 9.84528 121.874 9.9418 122.338 9.9418C122.818 9.9418 123.202 9.84528 123.492 9.65225C123.785 9.45921 123.932 9.22065 123.932 8.93655C123.932 8.69617 123.837 8.49767 123.648 8.34106C123.462 8.18444 123.172 8.06425 122.779 7.98048L121.318 7.68C120.497 7.51246 119.89 7.23019 119.496 6.83319C119.102 6.43255 118.907 5.92628 118.911 5.3144C118.907 4.7972 119.05 4.34921 119.34 3.97043C119.634 3.588 120.04 3.29298 120.561 3.08537C121.084 2.87413 121.688 2.7685 122.372 2.7685C123.375 2.7685 124.164 2.97793 124.74 3.39678C125.32 3.81563 125.678 4.38199 125.816 5.09586Z" fill="white"/>
</g>
</svg>
