<svg width="124" height="13" viewBox="0 0 124 13" fill="none" xmlns="http://www.w3.org/2000/svg">
<path d="M0.0117188 11.9996V0.363281H7.85263V2.39169H2.47195V5.16442H7.44922V7.19283H2.47195V9.97124H7.87536V11.9996H0.0117188Z" fill="white"/>
<path d="M9.76314 11.9996V3.27237H12.07V4.81215H12.1722C12.354 4.30078 12.6571 3.89737 13.0813 3.60192C13.5056 3.30646 14.0131 3.15874 14.604 3.15874C15.2025 3.15874 15.712 3.30836 16.1325 3.6076C16.5529 3.90305 16.8332 4.30457 16.9734 4.81215H17.0643C17.2423 4.31215 17.5643 3.91252 18.0302 3.61328C18.4999 3.31025 19.0548 3.15874 19.695 3.15874C20.5094 3.15874 21.1703 3.41821 21.6779 3.93715C22.1893 4.4523 22.445 5.18336 22.445 6.13033V11.9996H20.0302V6.6076C20.0302 6.12275 19.9014 5.75911 19.6438 5.51669C19.3862 5.27427 19.0643 5.15305 18.6779 5.15305C18.2385 5.15305 17.8957 5.29321 17.6495 5.57351C17.4033 5.85002 17.2802 6.21555 17.2802 6.6701V11.9996H14.9336V6.55646C14.9336 6.12843 14.8105 5.78752 14.5643 5.53374C14.3219 5.27995 14.0018 5.15305 13.604 5.15305C13.3351 5.15305 13.0927 5.22124 12.8768 5.3576C12.6647 5.49018 12.4961 5.67768 12.3711 5.9201C12.2461 6.15874 12.1836 6.43904 12.1836 6.76101V11.9996H9.76314Z" fill="white"/>
<path d="M28.3342 12.1701C27.4364 12.1701 26.6637 11.9883 26.016 11.6246C25.372 11.2572 24.8758 10.7383 24.5273 10.0678C24.1789 9.39359 24.0046 8.59624 24.0046 7.67578C24.0046 6.77805 24.1789 5.99018 24.5273 5.31215C24.8758 4.63411 25.3664 4.10571 25.9989 3.72692C26.6353 3.34813 27.3815 3.15874 28.2376 3.15874C28.8133 3.15874 29.3493 3.25154 29.8455 3.43715C30.3455 3.61896 30.7811 3.89358 31.1523 4.26101C31.5273 4.62843 31.819 5.09055 32.0273 5.64737C32.2357 6.2004 32.3398 6.84813 32.3398 7.59055V8.25533H24.9705V6.75533H30.0614C30.0614 6.40684 29.9857 6.09813 29.8342 5.82919C29.6826 5.56025 29.4724 5.35002 29.2035 5.19851C28.9383 5.04321 28.6296 4.96555 28.2773 4.96555C27.9099 4.96555 27.5842 5.05078 27.3001 5.22124C27.0198 5.3879 26.8001 5.61328 26.641 5.89737C26.4819 6.17768 26.4004 6.49018 26.3967 6.83487V8.26101C26.3967 8.69283 26.4762 9.06593 26.6353 9.38033C26.7982 9.69472 27.0273 9.93715 27.3228 10.1076C27.6183 10.2781 27.9686 10.3633 28.3739 10.3633C28.6429 10.3633 28.8891 10.3254 29.1126 10.2496C29.3361 10.1739 29.5273 10.0603 29.6864 9.90874C29.8455 9.75722 29.9667 9.57162 30.0501 9.35192L32.2887 9.49965C32.1751 10.0375 31.9421 10.5072 31.5898 10.9087C31.2414 11.3065 30.7906 11.6171 30.2376 11.8406C29.6883 12.0603 29.0539 12.1701 28.3342 12.1701Z" fill="white"/>
<path d="M33.9194 11.9996V3.27237H36.266V4.7951H36.3569C36.516 4.25343 36.783 3.84434 37.158 3.56783C37.533 3.28752 37.9648 3.14737 38.4535 3.14737C38.5747 3.14737 38.7054 3.15495 38.8455 3.1701C38.9857 3.18525 39.1088 3.20608 39.2148 3.2326V5.38033C39.1012 5.34624 38.944 5.31593 38.7433 5.28942C38.5425 5.2629 38.3588 5.24965 38.1921 5.24965C37.8361 5.24965 37.5179 5.3273 37.2376 5.4826C36.9611 5.63411 36.7414 5.84624 36.5785 6.11896C36.4194 6.39169 36.3398 6.70608 36.3398 7.06215V11.9996H33.9194Z" fill="white"/>
<path d="M42.7049 12.1644C42.1481 12.1644 41.6519 12.0678 41.2163 11.8746C40.7807 11.6777 40.436 11.3879 40.1822 11.0053C39.9322 10.619 39.8072 10.1379 39.8072 9.56215C39.8072 9.0773 39.8962 8.6701 40.0742 8.34055C40.2523 8.01101 40.4947 7.74586 40.8015 7.5451C41.1083 7.34434 41.4568 7.19283 41.8469 7.09055C42.2409 6.98828 42.6538 6.91631 43.0856 6.87465C43.5932 6.82161 44.0023 6.77237 44.3129 6.72692C44.6235 6.67768 44.8488 6.60571 44.989 6.51101C45.1291 6.41631 45.1992 6.27616 45.1992 6.09055V6.05646C45.1992 5.69661 45.0856 5.41821 44.8583 5.22124C44.6348 5.02427 44.3166 4.92578 43.9038 4.92578C43.4682 4.92578 43.1216 5.02237 42.864 5.21555C42.6064 5.40495 42.436 5.64358 42.3526 5.93146L40.114 5.74965C40.2276 5.21934 40.4511 4.76101 40.7844 4.37465C41.1178 3.98449 41.5477 3.68525 42.0742 3.47692C42.6045 3.2648 43.2182 3.15874 43.9151 3.15874C44.4 3.15874 44.864 3.21555 45.3072 3.32919C45.7541 3.44283 46.15 3.61896 46.4947 3.8576C46.8432 4.09624 47.1178 4.40305 47.3185 4.77805C47.5193 5.14927 47.6197 5.59434 47.6197 6.11328V11.9996H45.3242V10.7894H45.256C45.1159 11.0621 44.9284 11.3027 44.6935 11.511C44.4587 11.7156 44.1765 11.8765 43.8469 11.994C43.5174 12.1076 43.1367 12.1644 42.7049 12.1644ZM43.3981 10.494C43.7541 10.494 44.0685 10.4239 44.3413 10.2837C44.614 10.1398 44.828 9.94662 44.9833 9.70419C45.1386 9.46177 45.2163 9.18715 45.2163 8.88033V7.95419C45.1405 8.00343 45.0363 8.04889 44.9038 8.09055C44.775 8.12843 44.6291 8.16442 44.4663 8.19851C44.3034 8.22881 44.1405 8.25722 43.9776 8.28374C43.8147 8.30646 43.667 8.3273 43.5344 8.34624C43.2504 8.3879 43.0022 8.45419 42.7901 8.5451C42.578 8.63601 42.4132 8.75912 42.2958 8.91442C42.1784 9.06593 42.1197 9.25533 42.1197 9.4826C42.1197 9.81215 42.239 10.064 42.4776 10.2383C42.7201 10.4087 43.0269 10.494 43.3981 10.494Z" fill="white"/>
<path d="M51.918 0.363281V11.9996H49.4975V0.363281H51.918Z" fill="white"/>
<path d="M57.0728 12.1417C56.4099 12.1417 55.8095 11.9712 55.2717 11.6303C54.7376 11.2856 54.3133 10.7799 53.9989 10.1133C53.6883 9.44283 53.533 8.62086 53.533 7.64737C53.533 6.64737 53.694 5.81593 54.016 5.15305C54.3379 4.48639 54.766 3.98828 55.3001 3.65874C55.838 3.3254 56.427 3.15874 57.0671 3.15874C57.5558 3.15874 57.963 3.24207 58.2887 3.40874C58.6183 3.57161 58.8834 3.77616 59.0842 4.02237C59.2887 4.2648 59.444 4.50343 59.5501 4.73828H59.6239V0.363281H62.0387V6.18146V11.9996H59.6523V10.6019H59.5501C59.4364 10.8443 59.2754 11.0849 59.0671 11.3235C58.8626 11.5584 58.5955 11.7534 58.266 11.9087C57.9402 12.064 57.5425 12.1417 57.0728 12.1417ZM57.8398 10.2156C58.23 10.2156 58.5595 10.1095 58.8285 9.89737C59.1012 9.68146 59.3095 9.38033 59.4535 8.99396C59.6012 8.6076 59.6751 8.15495 59.6751 7.63601C59.6751 7.11707 59.6031 6.66631 59.4592 6.28374C59.3152 5.90116 59.1069 5.60571 58.8342 5.39737C58.5614 5.18904 58.23 5.08487 57.8398 5.08487C57.4421 5.08487 57.1069 5.19283 56.8342 5.40874C56.5614 5.62465 56.355 5.92389 56.2148 6.30646C56.0747 6.68904 56.0046 7.13222 56.0046 7.63601C56.0046 8.14358 56.0747 8.59245 56.2148 8.9826C56.3588 9.36896 56.5652 9.67199 56.8342 9.89169C57.1069 10.1076 57.4421 10.2156 57.8398 10.2156Z" fill="white"/>
<path d="M64.0742 11.9996V0.363281H68.6651C69.5477 0.363281 70.2996 0.531842 70.9208 0.868963C71.542 1.2023 72.0155 1.66631 72.3413 2.26101C72.6708 2.85192 72.8356 3.53374 72.8356 4.30646C72.8356 5.07919 72.6689 5.76101 72.3356 6.35192C72.0023 6.94283 71.5193 7.40305 70.8867 7.7326C70.2579 8.06215 69.4966 8.22692 68.6026 8.22692H65.6765V6.25533H68.2049C68.6784 6.25533 69.0685 6.17389 69.3754 6.01101C69.686 5.84434 69.917 5.61518 70.0685 5.32351C70.2238 5.02805 70.3015 4.68904 70.3015 4.30646C70.3015 3.9201 70.2238 3.58298 70.0685 3.2951C69.917 3.00343 69.686 2.77805 69.3754 2.61896C69.0648 2.45608 68.6708 2.37465 68.1935 2.37465H66.5344V11.9996H64.0742Z" fill="white"/>
<path d="M76.6424 12.1644C76.0856 12.1644 75.5894 12.0678 75.1538 11.8746C74.7182 11.6777 74.3735 11.3879 74.1197 11.0053C73.8697 10.619 73.7447 10.1379 73.7447 9.56215C73.7447 9.0773 73.8337 8.6701 74.0117 8.34055C74.1898 8.01101 74.4322 7.74586 74.739 7.5451C75.0458 7.34434 75.3943 7.19283 75.7844 7.09055C76.1784 6.98828 76.5913 6.91631 77.0231 6.87465C77.5307 6.82161 77.9398 6.77237 78.2504 6.72692C78.561 6.67768 78.7863 6.60571 78.9265 6.51101C79.0666 6.41631 79.1367 6.27616 79.1367 6.09055V6.05646C79.1367 5.69661 79.0231 5.41821 78.7958 5.22124C78.5723 5.02427 78.2541 4.92578 77.8413 4.92578C77.4057 4.92578 77.0591 5.02237 76.8015 5.21555C76.5439 5.40495 76.3735 5.64358 76.2901 5.93146L74.0515 5.74965C74.1651 5.21934 74.3886 4.76101 74.7219 4.37465C75.0553 3.98449 75.4852 3.68525 76.0117 3.47692C76.542 3.2648 77.1557 3.15874 77.8526 3.15874C78.3375 3.15874 78.8015 3.21555 79.2447 3.32919C79.6916 3.44283 80.0875 3.61896 80.4322 3.8576C80.7807 4.09624 81.0553 4.40305 81.256 4.77805C81.4568 5.14927 81.5572 5.59434 81.5572 6.11328V11.9996H79.2617V10.7894H79.1935C79.0534 11.0621 78.8659 11.3027 78.631 11.511C78.3962 11.7156 78.114 11.8765 77.7844 11.994C77.4549 12.1076 77.0742 12.1644 76.6424 12.1644ZM77.3356 10.494C77.6916 10.494 78.006 10.4239 78.2788 10.2837C78.5515 10.1398 78.7655 9.94662 78.9208 9.70419C79.0761 9.46177 79.1538 9.18715 79.1538 8.88033V7.95419C79.078 8.00343 78.9738 8.04889 78.8413 8.09055C78.7125 8.12843 78.5666 8.16442 78.4038 8.19851C78.2409 8.22881 78.078 8.25722 77.9151 8.28374C77.7523 8.30646 77.6045 8.3273 77.4719 8.34624C77.1879 8.3879 76.9398 8.45419 76.7276 8.5451C76.5155 8.63601 76.3507 8.75912 76.2333 8.91442C76.1159 9.06593 76.0572 9.25533 76.0572 9.4826C76.0572 9.81215 76.1765 10.064 76.4151 10.2383C76.6576 10.4087 76.9644 10.494 77.3356 10.494Z" fill="white"/>
<path d="M83.435 11.9996V3.27237H85.7816V4.7951H85.8725C86.0316 4.25343 86.2987 3.84434 86.6737 3.56783C87.0487 3.28752 87.4805 3.14737 87.9691 3.14737C88.0903 3.14737 88.221 3.15495 88.3612 3.1701C88.5013 3.18525 88.6244 3.20608 88.7305 3.2326V5.38033C88.6168 5.34624 88.4596 5.31593 88.2589 5.28942C88.0581 5.2629 87.8744 5.24965 87.7077 5.24965C87.3517 5.24965 87.0335 5.3273 86.7532 5.4826C86.4767 5.63411 86.257 5.84624 86.0941 6.11896C85.935 6.39169 85.8555 6.70608 85.8555 7.06215V11.9996H83.435Z" fill="white"/>
<path d="M92.4023 6.95419V11.9996H89.9819V3.27237H92.2887V4.81215H92.391C92.5842 4.30457 92.908 3.90305 93.3626 3.6076C93.8171 3.30836 94.3683 3.15874 95.016 3.15874C95.622 3.15874 96.1504 3.29131 96.6012 3.55646C97.052 3.82161 97.4023 4.2004 97.6523 4.69283C97.9023 5.18146 98.0273 5.7648 98.0273 6.44283V11.9996H95.6069V6.87465C95.6107 6.34055 95.4743 5.92389 95.1978 5.62465C94.9213 5.32161 94.5406 5.1701 94.0558 5.1701C93.73 5.1701 93.4421 5.24018 93.1921 5.38033C92.9459 5.52048 92.7527 5.72502 92.6126 5.99396C92.4762 6.25911 92.4061 6.57919 92.4023 6.95419Z" fill="white"/>
<path d="M103.912 12.1701C103.015 12.1701 102.242 11.9883 101.594 11.6246C100.95 11.2572 100.454 10.7383 100.105 10.0678C99.757 9.39359 99.5827 8.59624 99.5827 7.67578C99.5827 6.77805 99.757 5.99018 100.105 5.31215C100.454 4.63411 100.944 4.10571 101.577 3.72692C102.213 3.34813 102.96 3.15874 103.816 3.15874C104.391 3.15874 104.927 3.25154 105.424 3.43715C105.924 3.61896 106.359 3.89358 106.73 4.26101C107.105 4.62843 107.397 5.09055 107.605 5.64737C107.814 6.2004 107.918 6.84813 107.918 7.59055V8.25533H100.549V6.75533H105.64C105.64 6.40684 105.564 6.09813 105.412 5.82919C105.261 5.56025 105.051 5.35002 104.782 5.19851C104.516 5.04321 104.208 4.96555 103.855 4.96555C103.488 4.96555 103.162 5.05078 102.878 5.22124C102.598 5.3879 102.378 5.61328 102.219 5.89737C102.06 6.17768 101.979 6.49018 101.975 6.83487V8.26101C101.975 8.69283 102.054 9.06593 102.213 9.38033C102.376 9.69472 102.605 9.93715 102.901 10.1076C103.196 10.2781 103.547 10.3633 103.952 10.3633C104.221 10.3633 104.467 10.3254 104.691 10.2496C104.914 10.1739 105.105 10.0603 105.265 9.90874C105.424 9.75722 105.545 9.57162 105.628 9.35192L107.867 9.49965C107.753 10.0375 107.52 10.5072 107.168 10.9087C106.819 11.3065 106.369 11.6171 105.816 11.8406C105.266 12.0603 104.632 12.1701 103.912 12.1701Z" fill="white"/>
<path d="M109.498 11.9996V3.27237H111.844V4.7951H111.935C112.094 4.25343 112.361 3.84434 112.736 3.56783C113.111 3.28752 113.543 3.14737 114.032 3.14737C114.153 3.14737 114.284 3.15495 114.424 3.1701C114.564 3.18525 114.687 3.20608 114.793 3.2326V5.38033C114.679 5.34624 114.522 5.31593 114.321 5.28942C114.121 5.2629 113.937 5.24965 113.77 5.24965C113.414 5.24965 113.096 5.3273 112.816 5.4826C112.539 5.63411 112.319 5.84624 112.157 6.11896C111.998 6.39169 111.918 6.70608 111.918 7.06215V11.9996H109.498Z" fill="white"/>
<path d="M123.306 5.76101L121.09 5.89737C121.052 5.70798 120.971 5.53752 120.846 5.38601C120.721 5.23071 120.556 5.1076 120.351 5.01669C120.15 4.92199 119.91 4.87465 119.63 4.87465C119.255 4.87465 118.938 4.95419 118.681 5.11328C118.423 5.26858 118.294 5.47692 118.294 5.73828C118.294 5.94661 118.378 6.12275 118.544 6.26669C118.711 6.41063 118.997 6.52616 119.402 6.61328L120.982 6.93146C121.83 7.10571 122.463 7.38601 122.88 7.77237C123.296 8.15874 123.505 8.66631 123.505 9.2951C123.505 9.86707 123.336 10.369 122.999 10.8008C122.666 11.2326 122.207 11.5697 121.624 11.8121C121.044 12.0508 120.376 12.1701 119.618 12.1701C118.463 12.1701 117.542 11.9296 116.857 11.4485C116.175 10.9637 115.775 10.3046 115.658 9.47124L118.039 9.34624C118.111 9.69851 118.285 9.96745 118.561 10.1531C118.838 10.3349 119.192 10.4258 119.624 10.4258C120.048 10.4258 120.389 10.3443 120.647 10.1815C120.908 10.0148 121.041 9.80078 121.044 9.53942C121.041 9.31972 120.948 9.1398 120.766 8.99965C120.584 8.85571 120.304 8.74586 119.925 8.6701L118.414 8.36896C117.561 8.19851 116.927 7.90305 116.51 7.4826C116.097 7.06215 115.891 6.52616 115.891 5.87465C115.891 5.31404 116.042 4.83108 116.346 4.42578C116.652 4.02048 117.082 3.70798 117.635 3.48828C118.192 3.26858 118.844 3.15874 119.59 3.15874C120.692 3.15874 121.56 3.39169 122.192 3.8576C122.828 4.32351 123.2 4.95798 123.306 5.76101Z" fill="white"/>
</svg>
