<svg width="617" height="1095" viewBox="0 0 617 1095" fill="none" xmlns="http://www.w3.org/2000/svg">
<path d="M6.76994 51.0207L5.83713 50.6604L6.76994 51.0207ZM6.76994 368.003L7.66436 368.45L6.76994 368.003ZM169.5 510L169.789 509.043L169.754 509.032L169.718 509.024L169.5 510ZM424.498 811L425.493 810.902L424.498 811ZM705.134 1094C705.41 1094.48 706.022 1094.64 706.5 1094.37C706.978 1094.09 707.142 1093.48 706.866 1093L705.134 1094ZM236.287 0.373276C235.735 0.369756 235.284 0.814609 235.281 1.36688C235.277 1.91916 235.722 2.36972 236.274 2.37324L236.287 0.373276ZM224.014 2.45063C224.566 2.44087 225.006 1.98531 224.996 1.43311C224.986 0.880911 224.531 0.441178 223.978 0.450938L224.014 2.45063ZM211.641 0.786983C211.089 0.806942 210.658 1.27054 210.678 1.82247C210.698 2.37439 211.161 2.80564 211.713 2.78568L211.641 0.786983ZM199.402 3.32935C199.954 3.30076 200.378 2.83047 200.349 2.27893C200.321 1.72739 199.85 1.30344 199.299 1.33203L199.402 3.32935ZM186.985 2.05845C186.433 2.09481 186.016 2.57103 186.053 3.12212C186.089 3.6732 186.565 4.09047 187.116 4.05411L186.985 2.05845ZM174.842 4.94696C175.392 4.90323 175.803 4.42147 175.759 3.87092C175.716 3.32037 175.234 2.90951 174.683 2.95324L174.842 4.94696ZM162.377 4.01246C161.827 4.06345 161.422 4.55059 161.473 5.10051C161.524 5.65044 162.011 6.05491 162.561 6.00392L162.377 4.01246ZM150.316 7.22154C150.866 7.1632 151.263 6.67069 151.205 6.1215C151.147 5.5723 150.654 5.17439 150.105 5.23273L150.316 7.22154ZM137.845 6.62106C137.296 6.68707 136.905 7.18509 136.971 7.73341C137.037 8.28174 137.535 8.67273 138.084 8.60672L137.845 6.62106ZM125.873 10.1681C126.421 10.0939 126.804 9.59011 126.73 9.04283C126.656 8.49555 126.152 8.11205 125.605 8.18625L125.873 10.1681ZM113.389 9.94277C112.843 10.0259 112.468 10.5359 112.551 11.0819C112.634 11.6279 113.144 12.0031 113.69 11.92L113.389 9.94277ZM101.533 13.8839C102.077 13.7907 102.443 13.2738 102.35 12.7294C102.257 12.1851 101.74 11.8193 101.195 11.9125L101.533 13.8839ZM89.0559 14.1204C88.5136 14.2251 88.1589 14.7496 88.2637 15.2919C88.3684 15.8342 88.8929 16.1888 89.4352 16.0841L89.0559 14.1204ZM77.3868 18.5643C77.9263 18.446 78.2676 17.9127 78.1492 17.3732C78.0308 16.8338 77.4975 16.4924 76.9581 16.6108L77.3868 18.5643ZM64.9202 19.4425C64.3847 19.5776 64.0601 20.1213 64.1953 20.6568C64.3304 21.1923 64.8741 21.5168 65.4096 21.3817L64.9202 19.4425ZM53.5705 24.6113C54.1002 24.4548 54.4027 23.8986 54.2462 23.3689C54.0897 22.8393 53.5334 22.5368 53.0038 22.6933L53.5705 24.6113ZM41.2276 26.5083C40.7074 26.6938 40.436 27.2659 40.6215 27.7861C40.807 28.3063 41.379 28.5776 41.8992 28.3922L41.2276 26.5083ZM30.5198 32.9484C31.0228 32.7204 31.2457 32.1277 31.0177 31.6247C30.7896 31.1217 30.197 30.8988 29.694 31.1269L30.5198 32.9484ZM18.712 36.987C18.247 37.2849 18.1116 37.9034 18.4096 38.3685C18.7075 38.8335 19.326 38.9689 19.7911 38.6709L18.712 36.987ZM10.6704 46.4151C11.0191 45.9868 10.9546 45.3569 10.5263 45.0082C10.0981 44.6595 9.46819 44.724 9.11948 45.1523L10.6704 46.4151ZM4.6743 57.0589C4.68939 57.611 5.14917 58.0463 5.70125 58.0312C6.25333 58.0161 6.68864 57.5563 6.67355 57.0043L4.6743 57.0589ZM11.1293 67.1959C10.769 66.7773 10.1376 66.73 9.719 67.0903C9.30038 67.4505 9.25308 68.0819 9.61333 68.5005L11.1293 67.1959ZM19.2437 76.5651C19.7069 76.8659 20.3262 76.7343 20.627 76.2711C20.9278 75.8079 20.7961 75.1886 20.333 74.8878L19.2437 76.5651ZM30.7965 80.6757C30.2988 80.4363 29.7013 80.6458 29.4619 81.1435C29.2226 81.6413 29.4321 82.2388 29.9298 82.4781L30.7965 80.6757ZM41.1999 87.3549C41.7139 87.5569 42.2943 87.3039 42.4964 86.7899C42.6984 86.2759 42.4454 85.6954 41.9314 85.4934L41.1999 87.3549ZM53.2208 89.6047C52.6978 89.4273 52.13 89.7074 51.9525 90.2304C51.7751 90.7534 52.0553 91.3213 52.5783 91.4987L53.2208 89.6047ZM64.1055 95.1837C64.6341 95.3435 65.1923 95.0445 65.3521 94.5158C65.5119 93.9872 65.2129 93.4291 64.6842 93.2692L64.1055 95.1837ZM76.368 96.6344C75.8355 96.4879 75.2851 96.8008 75.1386 97.3333C74.9921 97.8658 75.305 98.4163 75.8375 98.5628L76.368 96.6344ZM87.7435 101.709C88.2787 101.845 88.823 101.522 88.9591 100.986C89.0952 100.451 88.7717 99.9068 88.2364 99.7707L87.7435 101.709ZM99.8819 102.636C99.3447 102.508 98.8053 102.84 98.6772 103.377C98.5491 103.914 98.8808 104.454 99.418 104.582L99.8819 102.636ZM111.314 107.339C111.853 107.461 112.388 107.123 112.51 106.584C112.631 106.045 112.293 105.51 111.754 105.388L111.314 107.339ZM123.628 108.004C123.088 107.888 122.556 108.231 122.44 108.771C122.324 109.311 122.667 109.843 123.207 109.959L123.628 108.004ZM135.071 112.462C135.612 112.574 136.141 112.226 136.253 111.686C136.365 111.145 136.017 110.616 135.476 110.504L135.071 112.462ZM147.465 112.943C146.924 112.834 146.397 113.185 146.289 113.727C146.18 114.268 146.531 114.795 147.073 114.904L147.465 112.943ZM158.924 117.242C159.466 117.347 159.991 116.993 160.096 116.451C160.202 115.909 159.848 115.384 159.306 115.278L158.924 117.242ZM171.309 117.587C170.766 117.484 170.243 117.84 170.14 118.383C170.036 118.925 170.393 119.449 170.935 119.552L171.309 117.587ZM182.824 121.792C183.367 121.894 183.889 121.536 183.99 120.993C184.092 120.45 183.734 119.928 183.191 119.826L182.824 121.792ZM195.181 122.05C194.638 121.95 194.117 122.309 194.017 122.852C193.917 123.395 194.276 123.917 194.819 124.017L195.181 122.05ZM206.746 126.203C207.289 126.302 207.81 125.942 207.909 125.398C208.008 124.855 207.648 124.334 207.105 124.235L206.746 126.203ZM219.086 126.413C218.543 126.315 218.022 126.676 217.924 127.219C217.825 127.762 218.186 128.283 218.729 128.381L219.086 126.413ZM230.676 130.544C231.22 130.643 231.74 130.282 231.838 129.738C231.936 129.195 231.576 128.675 231.032 128.576L230.676 130.544ZM243.005 130.743C242.461 130.645 241.941 131.006 241.842 131.549C241.744 132.092 242.105 132.613 242.648 132.711L243.005 130.743ZM254.603 134.882C255.146 134.981 255.667 134.621 255.766 134.077C255.865 133.534 255.505 133.013 254.961 132.914L254.603 134.882ZM266.924 135.101C266.38 135.001 265.859 135.361 265.759 135.904C265.66 136.447 266.019 136.968 266.562 137.068L266.924 135.101ZM278.515 139.276C279.058 139.377 279.58 139.019 279.681 138.476C279.782 137.933 279.424 137.411 278.881 137.31L278.515 139.276ZM290.832 139.548C290.289 139.446 289.766 139.803 289.664 140.345C289.561 140.888 289.918 141.411 290.461 141.514L290.832 139.548ZM302.4 143.79C302.942 143.895 303.466 143.54 303.571 142.997C303.675 142.455 303.32 141.931 302.778 141.826L302.4 143.79ZM314.718 144.152C314.177 144.046 313.651 144.398 313.544 144.94C313.437 145.482 313.79 146.008 314.331 146.115L314.718 144.152ZM326.238 148.495C326.779 148.604 327.307 148.255 327.417 147.713C327.526 147.172 327.177 146.644 326.635 146.535L326.238 148.495ZM338.569 148.992C338.028 148.879 337.498 149.226 337.385 149.766C337.272 150.307 337.618 150.837 338.159 150.95L338.569 148.992ZM350 153.474C350.54 153.591 351.073 153.249 351.19 152.709C351.307 152.17 350.965 151.637 350.425 151.52L350 153.474ZM362.358 154.166C361.819 154.044 361.284 154.382 361.162 154.921C361.04 155.459 361.377 155.995 361.916 156.117L362.358 154.166ZM373.638 158.836C374.175 158.964 374.714 158.632 374.842 158.094C374.969 157.557 374.637 157.018 374.1 156.89L373.638 158.836ZM386.038 159.806C385.502 159.671 384.959 159.996 384.824 160.532C384.69 161.067 385.015 161.611 385.551 161.745L386.038 159.806ZM397.257 164.777C397.79 164.92 398.339 164.603 398.481 164.07C398.624 163.536 398.307 162.988 397.774 162.845L397.257 164.777ZM409.503 166.094C408.972 165.942 408.418 166.249 408.266 166.779C408.113 167.31 408.42 167.864 408.951 168.017L409.503 166.094ZM420.643 171.518C421.17 171.683 421.731 171.389 421.895 170.862C422.06 170.335 421.767 169.774 421.239 169.609L420.643 171.518ZM432.744 173.384C432.222 173.203 431.653 173.481 431.473 174.003C431.293 174.525 431.57 175.094 432.092 175.274L432.744 173.384ZM443.431 179.418C443.946 179.618 444.525 179.362 444.725 178.847C444.925 178.333 444.67 177.753 444.155 177.553L443.431 179.418ZM455.512 182.293C455.008 182.066 454.416 182.29 454.189 182.794C453.962 183.297 454.186 183.89 454.69 184.116L455.512 182.293ZM465.544 189.484C466.029 189.749 466.637 189.571 466.902 189.087C467.167 188.602 466.989 187.995 466.504 187.73L465.544 189.484ZM476.92 194.211C476.471 193.888 475.847 193.99 475.524 194.439C475.202 194.887 475.304 195.512 475.753 195.835L476.92 194.211ZM484.646 203.655C485.014 204.068 485.646 204.104 486.058 203.737C486.471 203.37 486.508 202.738 486.14 202.325L484.646 203.655ZM492.463 213.018C492.301 212.49 491.742 212.193 491.214 212.355C490.686 212.517 490.389 213.077 490.551 213.605L492.463 213.018ZM490.244 224.657C490.02 225.162 490.249 225.752 490.754 225.976C491.259 226.199 491.849 225.971 492.073 225.466L490.244 224.657ZM484.526 234.784C484.949 234.43 485.005 233.799 484.651 233.375C484.296 232.952 483.666 232.896 483.242 233.251L484.526 234.784ZM473.535 239.753C473.052 240.022 472.879 240.631 473.148 241.113C473.416 241.596 474.025 241.769 474.508 241.5L473.535 239.753ZM463.81 246.738C464.316 246.517 464.547 245.928 464.327 245.422C464.106 244.916 463.516 244.684 463.01 244.905L463.81 246.738ZM452.171 249.233C451.653 249.423 451.387 249.998 451.578 250.516C451.768 251.035 452.343 251.3 452.862 251.11L452.171 249.233ZM441.739 254.935C442.265 254.766 442.553 254.202 442.383 253.676C442.214 253.151 441.65 252.862 441.124 253.032L441.739 254.935ZM429.89 256.471C429.36 256.625 429.055 257.18 429.209 257.71C429.364 258.241 429.919 258.546 430.449 258.391L429.89 256.471ZM418.996 261.579C419.529 261.437 419.847 260.889 419.704 260.355C419.562 259.821 419.014 259.504 418.48 259.647L418.996 261.579ZM407.087 262.577C406.551 262.71 406.224 263.252 406.357 263.788C406.491 264.324 407.033 264.651 407.569 264.518L407.087 262.577ZM396.154 267.266C396.692 267.14 397.026 266.603 396.9 266.065C396.774 265.527 396.236 265.193 395.699 265.319L396.154 267.266ZM384.139 267.949C383.6 268.068 383.26 268.602 383.38 269.141C383.499 269.681 384.033 270.021 384.573 269.901L384.139 267.949ZM373.091 272.39C373.631 272.276 373.976 271.745 373.862 271.205C373.747 270.664 373.216 270.319 372.676 270.434L373.091 272.39ZM361.143 272.833C360.602 272.943 360.253 273.471 360.364 274.013C360.474 274.554 361.002 274.903 361.543 274.792L361.143 272.833ZM349.937 277.122C350.479 277.015 350.831 276.489 350.724 275.948C350.617 275.406 350.091 275.053 349.549 275.16L349.937 277.122ZM338.034 277.404C337.492 277.508 337.136 278.032 337.241 278.575C337.345 279.117 337.869 279.472 338.411 279.368L338.034 277.404ZM326.761 281.581C327.303 281.479 327.661 280.956 327.559 280.413C327.457 279.871 326.934 279.513 326.391 279.615L326.761 281.581ZM314.865 281.759C314.322 281.859 313.963 282.381 314.063 282.924C314.163 283.467 314.685 283.826 315.228 283.726L314.865 281.759ZM303.596 285.853C304.139 285.755 304.499 285.234 304.401 284.691C304.302 284.147 303.782 283.787 303.238 283.885L303.596 285.853ZM291.666 285.974C291.122 286.072 290.761 286.592 290.858 287.135C290.956 287.679 291.476 288.04 292.019 287.943L291.666 285.974ZM280.399 290.02C280.942 289.924 281.305 289.404 281.208 288.861C281.111 288.317 280.592 287.955 280.048 288.051L280.399 290.02ZM268.452 290.112C267.909 290.209 267.546 290.728 267.642 291.271C267.739 291.815 268.258 292.178 268.802 292.081L268.452 290.112ZM257.188 294.14C257.732 294.043 258.094 293.525 257.998 292.981C257.902 292.437 257.383 292.074 256.839 292.171L257.188 294.14ZM245.236 294.228C244.692 294.325 244.33 294.844 244.426 295.388C244.523 295.931 245.042 296.294 245.586 296.197L245.236 294.228ZM233.975 298.265C234.519 298.167 234.881 297.648 234.784 297.104C234.687 296.561 234.167 296.199 233.624 296.296L233.975 298.265ZM222.028 298.375C221.484 298.473 221.123 298.993 221.221 299.536C221.319 300.08 221.839 300.441 222.382 300.343L222.028 298.375ZM210.772 302.447C211.315 302.348 211.675 301.827 211.576 301.284C211.477 300.741 210.956 300.381 210.413 300.48L210.772 302.447ZM198.84 302.606C198.297 302.707 197.938 303.228 198.038 303.771C198.139 304.314 198.661 304.673 199.204 304.573L198.84 302.606ZM187.59 306.744C188.132 306.641 188.489 306.118 188.387 305.576C188.284 305.033 187.761 304.676 187.219 304.779L187.59 306.744ZM175.688 306.98C175.146 307.084 174.791 307.609 174.896 308.151C175.001 308.693 175.525 309.048 176.068 308.943L175.688 306.98ZM164.445 311.218C164.987 311.11 165.339 310.584 165.231 310.042C165.124 309.501 164.598 309.149 164.056 309.256L164.445 311.218ZM152.546 311.575C152.005 311.686 151.656 312.214 151.767 312.755C151.877 313.296 152.406 313.645 152.947 313.534L152.546 311.575ZM141.365 315.947C141.906 315.832 142.251 315.301 142.136 314.761C142.022 314.221 141.491 313.876 140.95 313.99L141.365 315.947ZM129.432 316.483C128.893 316.603 128.552 317.136 128.671 317.676C128.79 318.215 129.324 318.555 129.863 318.436L129.432 316.483ZM118.401 321.028C118.939 320.904 119.274 320.367 119.149 319.829C119.025 319.29 118.487 318.955 117.949 319.08L118.401 321.028ZM106.412 321.823C105.875 321.955 105.546 322.496 105.678 323.032C105.809 323.569 106.35 323.897 106.886 323.766L106.412 321.823ZM95.5537 326.62C96.0883 326.481 96.409 325.935 96.2702 325.401C96.1313 324.866 95.5854 324.545 95.0509 324.684L95.5537 326.62ZM83.5979 327.766C83.0659 327.914 82.755 328.466 82.9035 328.997C83.0519 329.529 83.6034 329.84 84.1354 329.692L83.5979 327.766ZM72.7934 332.988C73.3219 332.828 73.6204 332.27 73.4601 331.741C73.2998 331.213 72.7414 330.914 72.2129 331.075L72.7934 332.988ZM61.0101 334.64C60.4864 334.815 60.2039 335.381 60.3792 335.905C60.5544 336.429 61.1211 336.711 61.6448 336.536L61.0101 334.64ZM50.658 340.432C51.1748 340.237 51.4358 339.66 51.2411 339.143C51.0463 338.626 50.4694 338.365 49.9526 338.56L50.658 340.432ZM38.9069 343.041C38.4011 343.263 38.171 343.853 38.3929 344.358C38.6149 344.864 39.2047 345.094 39.7105 344.872L38.9069 343.041ZM29.1506 349.974C29.6373 349.713 29.82 349.107 29.5588 348.62C29.2976 348.134 28.6914 347.951 28.2048 348.212L29.1506 349.974ZM18.1071 354.431C17.6588 354.754 17.5569 355.379 17.8795 355.827C18.2021 356.275 18.827 356.377 19.2753 356.054L18.1071 354.431ZM10.7338 363.8C11.0846 363.374 11.0232 362.743 10.5966 362.393C10.1701 362.042 9.53988 362.103 9.18908 362.53L10.7338 363.8ZM3.49105 373.237C3.31182 373.76 3.59001 374.329 4.1124 374.508C4.63479 374.687 5.20357 374.409 5.3828 373.886L3.49105 373.237ZM3.07954 385.421C3.11608 384.87 2.69897 384.393 2.14789 384.357C1.59682 384.32 1.12046 384.738 1.08392 385.289L3.07954 385.421ZM1.75372 397.523C1.8467 398.067 2.3634 398.433 2.90781 398.34C3.45221 398.247 3.81815 397.73 3.72517 397.186L1.75372 397.523ZM6.88473 408.616C6.68861 408.1 6.11109 407.84 5.5948 408.036C5.07851 408.232 4.81896 408.81 5.01507 409.326L6.88473 408.616ZM10.2484 420.348C10.5217 420.828 11.1324 420.996 11.6123 420.722C12.0922 420.449 12.2596 419.838 11.9862 419.359L10.2484 420.348ZM18.5435 429.32C18.2127 428.878 17.586 428.788 17.1437 429.118C16.7014 429.449 16.611 430.076 16.9418 430.518L18.5435 429.32ZM24.7255 439.863C25.0994 440.269 25.732 440.295 26.1384 439.922C26.5449 439.548 26.5712 438.915 26.1973 438.509L24.7255 439.863ZM34.6596 446.938C34.2526 446.565 33.62 446.592 33.2467 446.999C32.8733 447.406 32.9006 448.039 33.3076 448.412L34.6596 446.938ZM42.5445 456.275C42.9774 456.618 43.6064 456.545 43.9493 456.113C44.2923 455.68 44.2194 455.051 43.7865 454.708L42.5445 456.275ZM53.4254 461.853C52.9718 461.538 52.3487 461.65 52.0336 462.103C51.7185 462.557 51.8307 463.18 52.2842 463.495L53.4254 461.853ZM62.4219 470.124C62.8921 470.413 63.5081 470.267 63.7977 469.796C64.0874 469.326 63.9409 468.71 63.4707 468.421L62.4219 470.124ZM73.8375 474.453C73.3536 474.186 72.7455 474.363 72.4794 474.847C72.2132 475.331 72.3897 475.939 72.8737 476.205L73.8375 474.453ZM83.6242 481.805C84.1194 482.05 84.7191 481.846 84.9634 481.351C85.2078 480.856 85.0045 480.256 84.5092 480.012L83.6242 481.805ZM95.4019 485.112C94.8972 484.888 94.3063 485.115 94.0821 485.62C93.8579 486.124 94.0853 486.715 94.59 486.94L95.4019 485.112ZM105.713 491.633C106.226 491.839 106.808 491.59 107.014 491.077C107.219 490.564 106.97 489.982 106.457 489.777L105.713 491.633ZM117.685 494.052C117.166 493.864 116.593 494.133 116.405 494.652C116.217 495.172 116.486 495.745 117.005 495.933L117.685 494.052ZM128.436 499.861C128.961 500.032 129.525 499.745 129.697 499.22C129.868 498.695 129.581 498.13 129.056 497.959L128.436 499.861ZM140.545 501.518C140.015 501.362 139.459 501.666 139.304 502.196C139.148 502.726 139.451 503.281 139.981 503.437L140.545 501.518ZM151.623 506.682C152.157 506.823 152.704 506.504 152.845 505.97C152.986 505.436 152.667 504.889 152.133 504.748L151.623 506.682ZM163.805 507.666C163.268 507.539 162.729 507.872 162.602 508.409C162.475 508.947 162.808 509.485 163.345 509.612L163.805 507.666ZM174.96 512.678C175.49 512.835 176.046 512.533 176.203 512.004C176.36 511.474 176.058 510.918 175.529 510.761L174.96 512.678ZM187.19 514.164C186.659 514.011 186.105 514.318 185.953 514.848C185.8 515.379 186.107 515.933 186.637 516.086L187.19 514.164ZM198.336 519.41C198.868 519.559 199.42 519.25 199.57 518.718C199.719 518.186 199.409 517.634 198.878 517.485L198.336 519.41ZM210.586 520.747C210.054 520.6 209.503 520.912 209.355 521.445C209.208 521.977 209.52 522.528 210.053 522.675L210.586 520.747ZM221.783 525.9C222.316 526.046 222.866 525.732 223.011 525.199C223.157 524.667 222.843 524.117 222.31 523.971L221.783 525.9ZM234.047 527.17C233.514 527.025 232.965 527.339 232.82 527.872C232.675 528.405 232.99 528.955 233.523 529.1L234.047 527.17ZM245.268 532.286C245.801 532.43 246.351 532.115 246.495 531.582C246.64 531.049 246.325 530.5 245.792 530.355L245.268 532.286ZM257.5 533.529C256.967 533.384 256.418 533.699 256.274 534.232C256.129 534.765 256.444 535.314 256.977 535.459L257.5 533.529ZM268.695 538.642C269.228 538.787 269.778 538.473 269.923 537.94C270.068 537.407 269.753 536.857 269.22 536.712L268.695 538.642ZM280.946 539.914C280.413 539.768 279.863 540.081 279.717 540.614C279.571 541.147 279.885 541.697 280.417 541.843L280.946 539.914ZM292.137 545.069C292.669 545.216 293.22 544.904 293.367 544.372C293.514 543.84 293.202 543.289 292.67 543.141L292.137 545.069ZM304.384 546.401C303.852 546.252 303.3 546.563 303.151 547.095C303.002 547.626 303.313 548.178 303.845 548.327L304.384 546.401ZM315.534 551.625C316.065 551.776 316.618 551.467 316.769 550.936C316.92 550.405 316.612 549.852 316.081 549.701L315.534 551.625ZM327.768 553.052C327.237 552.898 326.683 553.204 326.529 553.734C326.376 554.265 326.682 554.819 327.212 554.973L327.768 553.052ZM338.875 558.381C339.405 558.537 339.961 558.234 340.118 557.705C340.274 557.175 339.971 556.619 339.442 556.462L338.875 558.381ZM351.093 559.942C350.564 559.782 350.006 560.081 349.846 560.61C349.686 561.138 349.986 561.696 350.514 561.856L351.093 559.942ZM362.119 565.409C362.647 565.573 363.207 565.278 363.371 564.75C363.535 564.223 363.24 563.662 362.712 563.499L362.119 565.409ZM374.3 567.147C373.774 566.979 373.211 567.269 373.043 567.795C372.875 568.321 373.165 568.884 373.691 569.052L374.3 567.147ZM385.253 572.809C385.777 572.982 386.343 572.698 386.516 572.173C386.689 571.649 386.405 571.083 385.88 570.91L385.253 572.809ZM397.419 574.796C396.897 574.617 396.328 574.895 396.149 575.417C395.969 575.939 396.248 576.508 396.77 576.687L397.419 574.796ZM408.232 580.706C408.752 580.892 409.324 580.621 409.511 580.101C409.697 579.581 409.426 579.009 408.906 578.823L408.232 580.706ZM420.332 583.014C419.815 582.82 419.238 583.081 419.044 583.598C418.849 584.115 419.111 584.692 419.628 584.886L420.332 583.014ZM430.944 589.257C431.457 589.461 432.039 589.21 432.243 588.697C432.447 588.184 432.196 587.603 431.683 587.399L430.944 589.257ZM442.945 592.014C442.436 591.799 441.85 592.037 441.634 592.545C441.419 593.054 441.657 593.641 442.165 593.856L442.945 592.014ZM453.268 598.73C453.771 598.959 454.364 598.737 454.593 598.235C454.822 597.732 454.6 597.139 454.098 596.91L453.268 598.73ZM465.107 602.149C464.613 601.903 464.012 602.104 463.766 602.599C463.52 603.093 463.721 603.694 464.216 603.94L465.107 602.149ZM474.946 609.568C475.429 609.836 476.038 609.662 476.306 609.179C476.573 608.696 476.399 608.087 475.916 607.819L474.946 609.568ZM486.422 614.035C485.956 613.74 485.338 613.878 485.042 614.344C484.746 614.81 484.884 615.428 485.35 615.724L486.422 614.035ZM495.229 622.55C495.669 622.884 496.296 622.798 496.63 622.358C496.964 621.918 496.878 621.291 496.438 620.957L495.229 622.55ZM505.799 628.977C505.406 628.59 504.773 628.595 504.385 628.989C503.998 629.382 504.003 630.016 504.397 630.403L505.799 628.977ZM512.017 639.484C512.322 639.944 512.942 640.071 513.403 639.766C513.864 639.462 513.99 638.841 513.686 638.381L512.017 639.484ZM518.767 649.744C518.641 649.206 518.103 648.872 517.566 648.998C517.028 649.124 516.694 649.662 516.82 650.199L518.767 649.744ZM516.894 661.548C516.78 662.088 517.126 662.618 517.666 662.732C518.207 662.846 518.737 662.501 518.851 661.96L516.894 661.548ZM514.711 673.088C514.964 672.597 514.771 671.994 514.28 671.741C513.789 671.488 513.186 671.68 512.933 672.171L514.711 673.088ZM506.908 681.936C506.589 682.387 506.696 683.011 507.147 683.329C507.598 683.648 508.222 683.541 508.541 683.09L506.908 681.936ZM501.387 692.365C501.74 691.939 501.68 691.309 501.255 690.957C500.829 690.605 500.199 690.664 499.847 691.09L501.387 692.365ZM492.251 699.849C491.882 700.26 491.915 700.892 492.325 701.262C492.736 701.631 493.368 701.598 493.738 701.188L492.251 699.849ZM485.839 709.761C486.216 709.358 486.196 708.725 485.793 708.347C485.39 707.969 484.757 707.99 484.379 708.393L485.839 709.761ZM476.392 716.854C476.012 717.255 476.029 717.888 476.431 718.267C476.832 718.647 477.465 718.63 477.844 718.228L476.392 716.854ZM469.875 726.7C470.251 726.296 470.229 725.663 469.825 725.287C469.42 724.911 468.788 724.933 468.411 725.337L469.875 726.7ZM460.547 733.937C460.179 734.349 460.214 734.981 460.626 735.349C461.038 735.717 461.67 735.682 462.038 735.27L460.547 733.937ZM454.436 744.038C454.79 743.615 454.734 742.984 454.311 742.63C453.887 742.275 453.256 742.332 452.902 742.755L454.436 744.038ZM445.611 751.883C445.277 752.323 445.364 752.95 445.804 753.284C446.244 753.617 446.871 753.531 447.205 753.091L445.611 751.883ZM440.516 762.519C440.82 762.058 440.692 761.438 440.23 761.134C439.769 760.831 439.149 760.959 438.845 761.42L440.516 762.519ZM432.835 771.479C432.575 771.966 432.759 772.572 433.246 772.832C433.733 773.093 434.339 772.909 434.599 772.421L432.835 771.479ZM429.78 782.87C429.979 782.355 429.722 781.776 429.207 781.578C428.691 781.379 428.112 781.636 427.914 782.151L429.78 782.87ZM424.541 793.44C424.428 793.98 424.774 794.51 425.315 794.623C425.855 794.737 426.385 794.39 426.499 793.85L424.541 793.44ZM425.241 805.199C425.246 804.646 424.802 804.195 424.25 804.189C423.698 804.184 423.246 804.628 423.241 805.18L425.241 805.199ZM424.731 817.071C424.89 817.6 425.448 817.9 425.977 817.74C426.505 817.581 426.805 817.023 426.645 816.494L424.731 817.071ZM431.234 827.027C430.968 826.543 430.36 826.366 429.876 826.632C429.392 826.898 429.215 827.506 429.481 827.99L431.234 827.027ZM435.894 838.178C436.211 838.63 436.835 838.74 437.287 838.423C437.739 838.106 437.849 837.482 437.532 837.03L435.894 838.178ZM444.581 846.368C444.235 845.938 443.605 845.869 443.175 846.215C442.744 846.561 442.676 847.191 443.022 847.621L444.581 846.368ZM450.662 856.682C451.027 857.096 451.659 857.137 452.074 856.772C452.488 856.407 452.529 855.775 452.164 855.36L450.662 856.682ZM460.105 864.083C459.727 863.68 459.094 863.66 458.691 864.039C458.289 864.417 458.269 865.049 458.647 865.452L460.105 864.083ZM466.878 873.997C467.266 874.391 467.899 874.395 468.292 874.007C468.685 873.62 468.69 872.986 468.302 872.593L466.878 873.997ZM476.693 880.935C476.298 880.55 475.664 880.557 475.279 880.953C474.893 881.348 474.901 881.981 475.296 882.367L476.693 880.935ZM483.837 890.573C484.238 890.952 484.871 890.935 485.25 890.534C485.63 890.133 485.613 889.5 485.212 889.12L483.837 890.573ZM493.817 897.164C493.412 896.789 492.779 896.814 492.404 897.22C492.03 897.626 492.055 898.258 492.46 898.633L493.817 897.164ZM501.188 906.61C501.598 906.981 502.23 906.949 502.601 906.539C502.971 906.13 502.94 905.498 502.53 905.127L501.188 906.61ZM511.333 913.024C510.92 912.657 510.288 912.694 509.921 913.107C509.554 913.519 509.591 914.151 510.003 914.518L511.333 913.024ZM518.887 922.368C519.302 922.732 519.934 922.691 520.298 922.276C520.663 921.861 520.621 921.229 520.206 920.865L518.887 922.368ZM529.112 928.635C528.695 928.273 528.063 928.318 527.701 928.735C527.339 929.152 527.384 929.784 527.801 930.146L529.112 928.635ZM536.745 937.87C537.164 938.23 537.795 938.182 538.155 937.763C538.515 937.345 538.468 936.713 538.049 936.353L536.745 937.87ZM547.031 944.048C546.61 943.689 545.979 943.739 545.621 944.159C545.262 944.579 545.312 945.21 545.732 945.569L547.031 944.048ZM554.745 953.242C555.166 953.599 555.797 953.548 556.154 953.127C556.512 952.706 556.46 952.075 556.039 951.717L554.745 953.242ZM565.057 959.36C564.635 959.003 564.005 959.056 563.648 959.477C563.291 959.899 563.344 960.53 563.765 960.887L565.057 959.36ZM572.802 968.523C573.224 968.879 573.855 968.826 574.211 968.404C574.567 967.982 574.514 967.351 574.092 966.995L572.802 968.523ZM583.132 974.625C582.71 974.269 582.079 974.322 581.723 974.745C581.366 975.167 581.42 975.797 581.842 976.154L583.132 974.625ZM590.868 983.776C591.29 984.132 591.921 984.079 592.277 983.657C592.634 983.235 592.581 982.605 592.159 982.248L590.868 983.776ZM601.191 989.892C600.77 989.535 600.139 989.587 599.782 990.008C599.425 990.43 599.477 991.06 599.898 991.418L601.191 989.892ZM608.921 999.084C609.342 999.442 609.973 999.392 610.331 998.971C610.689 998.551 610.639 997.92 610.218 997.562L608.921 999.084ZM619.212 1005.25C618.793 1004.89 618.162 1004.94 617.802 1005.36C617.443 1005.78 617.491 1006.41 617.91 1006.77L619.212 1005.25ZM626.849 1014.47C627.266 1014.83 627.898 1014.79 628.259 1014.37C628.621 1013.95 628.576 1013.32 628.158 1012.96L626.849 1014.47ZM637.064 1020.72C636.649 1020.36 636.017 1020.4 635.653 1020.81C635.289 1021.23 635.33 1021.86 635.745 1022.22L637.064 1020.72ZM644.624 1030.07C645.037 1030.44 645.669 1030.4 646.036 1029.99C646.404 1029.58 646.367 1028.95 645.955 1028.58L644.624 1030.07ZM654.768 1036.51C654.359 1036.14 653.727 1036.17 653.355 1036.58C652.983 1036.99 653.013 1037.62 653.422 1037.99L654.768 1036.51ZM662.116 1046.01C662.519 1046.38 663.152 1046.36 663.529 1045.96C663.906 1045.55 663.885 1044.92 663.482 1044.54L662.116 1046.01ZM672.07 1052.71C671.674 1052.32 671.041 1052.33 670.656 1052.73C670.272 1053.13 670.282 1053.76 670.679 1054.14L672.07 1052.71ZM679.069 1062.45C679.457 1062.85 680.09 1062.85 680.484 1062.46C680.877 1062.08 680.882 1061.44 680.495 1061.05L679.069 1062.45ZM688.682 1069.63C688.309 1069.23 687.676 1069.2 687.269 1069.57C686.863 1069.95 686.837 1070.58 687.211 1070.99L688.682 1069.63ZM694.95 1079.81C695.302 1080.24 695.932 1080.3 696.358 1079.95C696.783 1079.59 696.842 1078.96 696.49 1078.54L694.95 1079.81ZM703.706 1088.01C703.394 1087.56 702.772 1087.44 702.316 1087.75C701.86 1088.06 701.744 1088.69 702.056 1089.14L703.706 1088.01ZM242.457 0.460283C240.483 0.415937 238.425 0.386898 236.287 0.373276L236.274 2.37324C238.402 2.38679 240.45 2.41569 242.412 2.45978L242.457 0.460283ZM223.978 0.450938C220.037 0.520614 215.914 0.632446 211.641 0.786983L211.713 2.78568C215.975 2.63156 220.085 2.52007 224.014 2.45063L223.978 0.450938ZM199.299 1.33203C195.284 1.54008 191.173 1.78209 186.985 2.05845L187.116 4.05411C191.295 3.77836 195.398 3.53691 199.402 3.32935L199.299 1.33203ZM174.683 2.95324C170.626 3.27552 166.518 3.62848 162.377 4.01246L162.561 6.00392C166.694 5.62076 170.793 5.26855 174.842 4.94696L174.683 2.95324ZM150.105 5.23273C146.029 5.66574 141.937 6.12841 137.845 6.62106L138.084 8.60672C142.166 8.11522 146.249 7.6536 150.316 7.22154L150.105 5.23273ZM125.605 8.18625C121.512 8.74112 117.435 9.32652 113.389 9.94277L113.69 11.92C117.725 11.3054 121.791 10.7216 125.873 10.1681L125.605 8.18625ZM101.195 11.9125C97.0927 12.615 93.0403 13.3508 89.0559 14.1204L89.4352 16.0841C93.4048 15.3174 97.4433 14.5841 101.533 13.8839L101.195 11.9125ZM76.9581 16.6108C72.8389 17.5149 68.8189 18.4586 64.9202 19.4425L65.4096 21.3817C69.2864 20.4033 73.286 19.4643 77.3868 18.5643L76.9581 16.6108ZM53.0038 22.6933C48.8816 23.9114 44.9452 25.1828 41.2276 26.5083L41.8992 28.3922C45.5778 27.0806 49.4788 25.8204 53.5705 24.6113L53.0038 22.6933ZM29.694 31.1269C25.598 32.9839 21.9126 34.9361 18.712 36.987L19.7911 38.6709C22.893 36.6833 26.4899 34.7755 30.5198 32.9484L29.694 31.1269ZM9.11948 45.1523C7.68568 46.9133 6.57565 48.7487 5.83713 50.6604L7.70275 51.3811C8.35334 49.697 9.3462 48.0415 10.6704 46.4151L9.11948 45.1523ZM5.83713 50.6604C5.00159 52.8232 4.61684 54.9573 4.6743 57.0589L6.67355 57.0043C6.62397 55.1907 6.95389 53.3195 7.70275 51.3811L5.83713 50.6604ZM9.61333 68.5005C12.0278 71.3062 15.2756 73.9882 19.2437 76.5651L20.333 74.8878C16.4688 72.3784 13.3833 69.8151 11.1293 67.1959L9.61333 68.5005ZM29.9298 82.4781C33.3824 84.1382 37.1482 85.7626 41.1999 87.3549L41.9314 85.4934C37.9172 83.9159 34.1974 82.3109 30.7965 80.6757L29.9298 82.4781ZM52.5783 91.4987C56.2515 92.7447 60.0986 93.9724 64.1055 95.1837L64.6842 93.2692C60.696 92.0637 56.8704 90.8427 53.2208 89.6047L52.5783 91.4987ZM75.8375 98.5628C79.6908 99.6228 83.6628 100.671 87.7435 101.709L88.2364 99.7707C84.167 98.7357 80.2076 97.6907 76.368 96.6344L75.8375 98.5628ZM99.418 104.582C103.304 105.508 107.271 106.427 111.314 107.339L111.754 105.388C107.719 104.478 103.759 103.561 99.8819 102.636L99.418 104.582ZM123.207 109.959C127.105 110.798 131.061 111.632 135.071 112.462L135.476 110.504C131.472 109.675 127.52 108.842 123.628 108.004L123.207 109.959ZM147.073 114.904C150.982 115.686 154.934 116.465 158.924 117.242L159.306 115.278C155.32 114.503 151.371 113.724 147.465 112.943L147.073 114.904ZM170.935 119.552C174.869 120.3 178.834 121.047 182.824 121.792L183.191 119.826C179.203 119.081 175.241 118.335 171.309 117.587L170.935 119.552ZM194.819 124.017C198.776 124.746 202.753 125.474 206.746 126.203L207.105 124.235C203.113 123.507 199.137 122.779 195.181 122.05L194.819 124.017ZM218.729 128.381C222.702 129.102 226.686 129.823 230.676 130.544L231.032 128.576C227.042 127.855 223.059 127.134 219.086 126.413L218.729 128.381ZM242.648 132.711C246.632 133.433 250.619 134.156 254.603 134.882L254.961 132.914C250.976 132.189 246.989 131.465 243.005 130.743L242.648 132.711ZM266.562 137.068C270.555 137.801 274.54 138.537 278.515 139.276L278.881 137.31C274.904 136.57 270.917 135.834 266.924 135.101L266.562 137.068ZM290.461 141.514C294.457 142.268 298.439 143.027 302.4 143.79L302.778 141.826C298.814 141.063 294.831 140.304 290.832 139.548L290.461 141.514ZM314.331 146.115C318.327 146.903 322.298 147.696 326.238 148.495L326.635 146.535C322.691 145.735 318.718 144.941 314.718 144.152L314.331 146.115ZM338.159 150.95C342.145 151.784 346.094 152.626 350 153.474L350.425 151.52C346.513 150.67 342.559 149.828 338.569 148.992L338.159 150.95ZM361.916 156.117C365.877 157.014 369.786 157.921 373.638 158.836L374.1 156.89C370.241 155.973 366.325 155.065 362.358 154.166L361.916 156.117ZM385.551 161.745C389.528 162.744 393.432 163.755 397.257 164.777L397.774 162.845C393.938 161.82 390.024 160.807 386.038 159.806L385.551 161.745ZM408.951 168.017C412.956 169.168 416.857 170.335 420.643 171.518L421.239 169.609C417.438 168.421 413.522 167.249 409.503 166.094L408.951 168.017ZM432.092 175.274C436.031 176.633 439.815 178.013 443.431 179.418L444.155 177.553C440.512 176.139 436.704 174.749 432.744 173.384L432.092 175.274ZM454.69 184.116C458.58 185.87 462.205 187.658 465.544 189.484L466.504 187.73C463.113 185.875 459.441 184.064 455.512 182.293L454.69 184.116ZM475.753 195.835C479.292 198.378 482.27 200.984 484.646 203.655L486.14 202.325C483.644 199.521 480.549 196.819 476.92 194.211L475.753 195.835ZM490.551 213.605C491.123 215.471 491.416 217.37 491.416 219.309H493.416C493.416 217.166 493.092 215.068 492.463 213.018L490.551 213.605ZM491.416 219.309C491.416 221.119 491.022 222.898 490.244 224.657L492.073 225.466C492.955 223.473 493.416 221.419 493.416 219.309H491.416ZM483.242 233.251C480.601 235.462 477.351 237.628 473.535 239.753L474.508 241.5C478.402 239.332 481.763 237.097 484.526 234.784L483.242 233.251ZM463.01 244.905C459.651 246.371 456.031 247.812 452.171 249.233L452.862 251.11C456.753 249.678 460.409 248.222 463.81 246.738L463.01 244.905ZM441.124 253.032C437.532 254.193 433.783 255.338 429.89 256.471L430.449 258.391C434.358 257.254 438.126 256.102 441.739 254.935L441.124 253.032ZM418.48 259.647C414.784 260.633 410.984 261.609 407.087 262.577L407.569 264.518C411.476 263.548 415.288 262.568 418.996 261.579L418.48 259.647ZM395.699 265.319C391.919 266.202 388.064 267.078 384.139 267.949L384.573 269.901C388.504 269.029 392.367 268.151 396.154 267.266L395.699 265.319ZM372.676 270.434C368.885 271.238 365.039 272.037 361.143 272.833L361.543 274.792C365.444 273.996 369.294 273.196 373.091 272.39L372.676 270.434ZM349.549 275.16C345.749 275.911 341.909 276.659 338.034 277.404L338.411 279.368C342.29 278.622 346.133 277.874 349.937 277.122L349.549 275.16ZM326.391 279.615C322.577 280.332 318.733 281.046 314.865 281.759L315.228 283.726C319.098 283.013 322.943 282.298 326.761 281.581L326.391 279.615ZM303.238 283.885C299.399 284.583 295.54 285.279 291.666 285.974L292.019 287.943C295.894 287.247 299.754 286.551 303.596 285.853L303.238 283.885ZM280.048 288.051C276.192 288.738 272.326 289.425 268.452 290.112L268.802 292.081C272.675 291.394 276.542 290.707 280.399 290.02L280.048 288.051ZM256.839 292.171C252.973 292.856 249.104 293.541 245.236 294.228L245.586 296.197C249.453 295.511 253.322 294.825 257.188 294.14L256.839 292.171ZM233.624 296.296C229.752 296.987 225.886 297.68 222.028 298.375L222.382 300.343C226.239 299.649 230.104 298.956 233.975 298.265L233.624 296.296ZM210.413 300.48C206.541 301.186 202.682 301.894 198.84 302.606L199.204 304.573C203.044 303.861 206.901 303.153 210.772 302.447L210.413 300.48ZM187.219 304.779C183.352 305.509 179.507 306.242 175.688 306.98L176.068 308.943C179.883 308.206 183.725 307.473 187.59 306.744L187.219 304.779ZM164.056 309.256C160.186 310.024 156.347 310.797 152.546 311.575L152.947 313.534C156.744 312.757 160.578 311.985 164.445 311.218L164.056 309.256ZM140.95 313.99C137.064 314.815 133.223 315.646 129.432 316.483L129.863 318.436C133.648 317.6 137.484 316.77 141.365 315.947L140.95 313.99ZM117.949 319.08C114.038 319.986 110.19 320.9 106.412 321.823L106.886 323.766C110.657 322.845 114.497 321.932 118.401 321.028L117.949 319.08ZM95.0509 324.684C91.1429 325.699 87.3226 326.726 83.5979 327.766L84.1354 329.692C87.8476 328.656 91.6564 327.632 95.5537 326.62L95.0509 324.684ZM72.2129 331.075C68.3502 332.246 64.6124 333.434 61.0101 334.64L61.6448 336.536C65.2274 335.337 68.947 334.155 72.7934 332.988L72.2129 331.075ZM49.9526 338.56C46.0625 340.026 42.3747 341.519 38.9069 343.041L39.7105 344.872C43.1417 343.367 46.7964 341.887 50.658 340.432L49.9526 338.56ZM28.2048 348.212C24.4463 350.23 21.0673 352.301 18.1071 354.431L19.2753 356.054C22.1507 353.985 25.4526 351.959 29.1506 349.974L28.2048 348.212ZM9.18908 362.53C7.84565 364.163 6.73438 365.838 5.87551 367.556L7.66436 368.45C8.44728 366.884 9.47202 365.335 10.7338 363.8L9.18908 362.53ZM5.87551 367.556C4.95 369.407 4.155 371.302 3.49105 373.237L5.3828 373.886C6.01776 372.036 6.7783 370.222 7.66436 368.45L5.87551 367.556ZM1.08392 385.289C0.819695 389.274 1.04327 393.363 1.75372 397.523L3.72517 397.186C3.03971 393.173 2.82627 389.241 3.07954 385.421L1.08392 385.289ZM5.01507 409.326C6.40258 412.979 8.14719 416.66 10.2484 420.348L11.9862 419.359C9.93248 415.753 8.23306 412.165 6.88473 408.616L5.01507 409.326ZM16.9418 430.518C19.2794 433.644 21.8739 436.763 24.7255 439.863L26.1973 438.509C23.389 435.456 20.8382 432.389 18.5435 429.32L16.9418 430.518ZM33.3076 448.412C36.1926 451.059 39.2715 453.683 42.5445 456.275L43.7865 454.708C40.5496 452.144 37.5076 449.551 34.6596 446.938L33.3076 448.412ZM52.2842 463.495C55.5103 465.737 58.8894 467.948 62.4219 470.124L63.4707 468.421C59.9685 466.264 56.6202 464.073 53.4254 461.853L52.2842 463.495ZM72.8737 476.205C76.3313 478.107 79.9147 479.975 83.6242 481.805L84.5092 480.012C80.8256 478.194 77.2685 476.34 73.8375 474.453L72.8737 476.205ZM94.59 486.94C98.1927 488.54 101.9 490.105 105.713 491.633L106.457 489.777C102.667 488.258 98.9816 486.702 95.4019 485.112L94.59 486.94ZM117.005 495.933C120.725 497.278 124.535 498.588 128.436 499.861L129.056 497.959C125.175 496.693 121.385 495.39 117.685 494.052L117.005 495.933ZM139.981 503.437C143.783 504.554 147.663 505.636 151.623 506.682L152.133 504.748C148.191 503.707 144.329 502.63 140.545 501.518L139.981 503.437ZM163.345 509.612C165.306 510.076 167.285 510.53 169.282 510.976L169.718 509.024C167.729 508.58 165.758 508.127 163.805 507.666L163.345 509.612ZM169.211 510.957C171.099 511.528 173.016 512.102 174.96 512.678L175.529 510.761C173.588 510.185 171.674 509.612 169.789 509.043L169.211 510.957ZM186.637 516.086C190.454 517.183 194.357 518.291 198.336 519.41L198.878 517.485C194.901 516.367 191.003 515.26 187.19 514.164L186.637 516.086ZM210.053 522.675C213.906 523.741 217.818 524.816 221.783 525.9L222.31 523.971C218.347 522.887 214.437 521.812 210.586 520.747L210.053 522.675ZM233.523 529.1C237.399 530.153 241.317 531.215 245.268 532.286L245.792 530.355C241.84 529.285 237.923 528.223 234.047 527.17L233.523 529.1ZM256.977 535.459C260.859 536.512 264.767 537.573 268.695 538.642L269.22 536.712C265.291 535.643 261.383 534.581 257.5 533.529L256.977 535.459ZM280.417 541.843C284.312 542.91 288.22 543.985 292.137 545.069L292.67 543.141C288.751 542.057 284.842 540.982 280.946 539.914L280.417 541.843ZM303.845 548.327C307.74 549.418 311.638 550.517 315.534 551.625L316.081 549.701C312.182 548.593 308.282 547.493 304.384 546.401L303.845 548.327ZM327.212 554.973C331.11 556.1 335 557.236 338.875 558.381L339.442 556.462C335.562 555.317 331.669 554.18 327.768 553.052L327.212 554.973ZM350.514 561.856C354.404 563.032 358.275 564.216 362.119 565.409L362.712 563.499C358.862 562.304 354.987 561.119 351.093 559.942L350.514 561.856ZM373.691 569.052C377.58 570.295 381.436 571.547 385.253 572.809L385.88 570.91C382.057 569.646 378.195 568.392 374.3 567.147L373.691 569.052ZM396.77 576.687C400.642 578.017 404.465 579.356 408.232 580.706L408.906 578.823C405.131 577.47 401.299 576.128 397.419 574.796L396.77 576.687ZM419.628 584.886C423.473 586.332 427.248 587.789 430.944 589.257L431.683 587.399C427.974 585.925 424.188 584.464 420.332 583.014L419.628 584.886ZM442.165 593.856C445.971 595.467 449.676 597.092 453.268 598.73L454.098 596.91C450.487 595.264 446.766 593.632 442.945 592.014L442.165 593.856ZM464.216 603.94C467.951 605.8 471.532 607.676 474.946 609.568L475.916 607.819C472.473 605.911 468.866 604.021 465.107 602.149L464.216 603.94ZM485.35 615.724C488.902 617.978 492.202 620.254 495.229 622.55L496.438 620.957C493.361 618.622 490.014 616.315 486.422 614.035L485.35 615.724ZM504.397 630.403C507.446 633.404 509.999 636.431 512.017 639.484L513.686 638.381C511.576 635.19 508.928 632.056 505.799 628.977L504.397 630.403ZM516.82 650.199C517.269 652.121 517.498 654.054 517.498 656H519.498C519.498 653.895 519.25 651.809 518.767 649.744L516.82 650.199ZM517.498 656C517.498 657.815 517.292 659.664 516.894 661.548L518.851 661.96C519.274 659.955 519.498 657.967 519.498 656H517.498ZM512.933 672.171C511.295 675.351 509.261 678.606 506.908 681.936L508.541 683.09C510.934 679.705 513.02 676.37 514.711 673.088L512.933 672.171ZM499.847 691.09C497.467 693.965 494.92 696.885 492.251 699.849L493.738 701.188C496.42 698.208 498.986 695.267 501.387 692.365L499.847 691.09ZM484.379 708.393C481.768 711.179 479.094 713.998 476.392 716.854L477.844 718.228C480.545 715.375 483.223 712.551 485.839 709.761L484.379 708.393ZM468.411 725.337C465.771 728.173 463.138 731.04 460.547 733.937L462.038 735.27C464.618 732.386 467.241 729.529 469.875 726.7L468.411 725.337ZM452.902 742.755C450.383 745.766 447.941 748.809 445.611 751.883L447.205 753.091C449.512 750.047 451.934 747.029 454.436 744.038L452.902 742.755ZM438.845 761.42C436.663 764.738 434.645 768.091 432.835 771.479L434.599 772.421C436.377 769.094 438.362 765.793 440.516 762.519L438.845 761.42ZM427.914 782.151C426.48 785.874 425.338 789.637 424.541 793.44L426.499 793.85C427.271 790.164 428.381 786.504 429.78 782.87L427.914 782.151ZM423.241 805.18C423.223 807.144 423.308 809.117 423.503 811.098L425.493 810.902C425.306 808.994 425.224 807.092 425.241 805.199L423.241 805.18ZM423.503 811.098C423.691 813.007 424.106 815.001 424.731 817.071L426.645 816.494C426.052 814.527 425.666 812.662 425.493 810.902L423.503 811.098ZM429.481 827.99C431.266 831.243 433.417 834.644 435.894 838.178L437.532 837.03C435.087 833.543 432.977 830.204 431.234 827.027L429.481 827.99ZM443.022 847.621C445.39 850.568 447.943 853.591 450.662 856.682L452.164 855.36C449.461 852.289 446.928 849.289 444.581 846.368L443.022 847.621ZM458.647 865.452C461.278 868.255 464.026 871.105 466.878 873.997L468.302 872.593C465.46 869.711 462.724 866.873 460.105 864.083L458.647 865.452ZM475.296 882.367C478.067 885.072 480.917 887.808 483.837 890.573L485.212 889.12C482.299 886.362 479.456 883.633 476.693 880.935L475.296 882.367ZM492.46 898.633C495.318 901.272 498.229 903.932 501.188 906.61L502.53 905.127C499.576 902.453 496.669 899.798 493.817 897.164L492.46 898.633ZM510.003 914.518C512.929 917.122 515.892 919.739 518.887 922.368L520.206 920.865C517.215 918.239 514.255 915.625 511.333 913.024L510.003 914.518ZM527.801 930.146C530.76 932.713 533.743 935.289 536.745 937.87L538.049 936.353C535.049 933.774 532.069 931.201 529.112 928.635L527.801 930.146ZM545.732 945.569C548.725 948.125 551.731 950.683 554.745 953.242L556.039 951.717C553.027 949.159 550.023 946.602 547.031 944.048L545.732 945.569ZM563.765 960.887C566.777 963.435 569.791 965.981 572.802 968.523L574.092 966.995C571.082 964.454 568.069 961.908 565.057 959.36L563.765 960.887ZM581.842 976.154C584.862 978.702 587.872 981.244 590.868 983.776L592.159 982.248C589.162 979.716 586.152 977.174 583.132 974.625L581.842 976.154ZM599.898 991.418C602.929 993.987 605.938 996.543 608.921 999.084L610.218 997.562C607.234 995.019 604.223 992.462 601.191 989.892L599.898 991.418ZM617.91 1006.77C620.927 1009.36 623.909 1011.93 626.849 1014.47L628.158 1012.96C625.215 1010.41 622.231 1007.84 619.212 1005.25L617.91 1006.77ZM635.745 1022.22C638.761 1024.87 641.724 1027.49 644.624 1030.07L645.955 1028.58C643.05 1025.99 640.084 1023.37 637.064 1020.72L635.745 1022.22ZM653.422 1037.99C656.404 1040.71 659.305 1043.38 662.116 1046.01L663.482 1044.54C660.664 1041.91 657.756 1039.23 654.768 1036.51L653.422 1037.99ZM670.679 1054.14C673.608 1056.98 676.409 1059.75 679.069 1062.45L680.495 1061.05C677.821 1058.33 675.009 1055.55 672.07 1052.71L670.679 1054.14ZM687.211 1070.99C690.024 1074.05 692.611 1076.99 694.95 1079.81L696.49 1078.54C694.126 1075.68 691.515 1072.71 688.682 1069.63L687.211 1070.99ZM702.056 1089.14C703.209 1090.83 704.237 1092.45 705.134 1094L706.866 1093C705.94 1091.4 704.883 1089.73 703.706 1088.01L702.056 1089.14Z" fill="url(#paint0_linear_113_197)"/>
<defs>
<linearGradient id="paint0_linear_113_197" x1="331.987" y1="1.36423" x2="662" y2="984" gradientUnits="userSpaceOnUse">
<stop stop-color="#3361A3"/>
<stop offset="1" stop-color="#3F73BE"/>
</linearGradient>
</defs>
</svg>
