<svg width="143" height="143" viewBox="0 0 143 143" fill="none" xmlns="http://www.w3.org/2000/svg">
<g filter="url(#filter0_d_388_214)">
<circle cx="71.5" cy="67.5" r="42.5" fill="url(#paint0_linear_388_214)"/>
</g>
<mask id="mask0_388_214" style="mask-type:alpha" maskUnits="userSpaceOnUse" x="29" y="25" width="85" height="85">
<circle cx="71.5" cy="67.5" r="42.5" fill="white"/>
</mask>
<g mask="url(#mask0_388_214)">
<path d="M82.9851 95.1331C81.74 92.3939 80.4327 85.8573 80.4327 82.8691C80.4327 80.628 79.5611 74.2781 71.2814 74.2781C63.0016 74.2781 62.1923 82.9936 62.1923 82.9936C62.6281 86.9778 61.1962 92.7052 59.9512 95.1331C60.0134 95.1331 70.4098 103.039 82.9851 95.1331Z" fill="#FFD3B6"/>
<path d="M80.4335 82.8691C80.4335 80.628 79.5619 74.2781 71.2822 74.2781C63.0024 74.2781 62.1931 82.9936 62.1931 82.9936C62.3176 84.1142 62.2554 85.3592 62.1309 86.6043C66.7376 89.9038 72.6517 90.3395 77.5698 87.9739C78.6281 87.4759 79.6864 86.7288 80.6202 85.9195C80.558 84.7367 80.4335 83.6784 80.4335 82.8691Z" fill="#F7A894"/>
<path d="M110.875 141.948C110.128 136.719 109.319 131.552 108.51 126.571L108.261 124.953C107.327 118.976 106.144 111.506 103.841 105.592C102.471 102.106 99.0473 100.861 95.9346 99.8022C95.1253 99.491 94.316 99.242 93.569 98.9307C89.3357 97.0631 86.0985 95.5067 82.052 92.8921L81.8652 92.7676L61.0102 92.5186L60.8235 92.6431C56.9015 95.1332 53.7266 96.9386 49.3065 98.9307C48.5595 99.242 47.8125 99.5532 46.9409 99.8022C43.8905 100.861 40.4043 102.106 39.0347 105.592C36.7313 111.568 35.5485 118.976 34.6147 124.953L34.3034 126.883C33.5563 131.801 32.747 136.843 32 141.948L32 142.757H111L110.875 141.948Z" fill="#FFD3B6"/>
<path d="M93.6315 98.9308C91.3904 97.9347 89.3982 97.0009 87.4061 96.0049V101.857C87.4061 110.635 80.3092 117.731 71.5314 117.731C62.7536 117.731 55.6567 110.635 55.6567 101.857V95.8181C53.7268 96.8764 51.797 97.8725 49.3068 98.9931C48.7465 99.2421 48.0617 99.4911 47.377 99.7401V142.82H95.6236V99.8024C95.0011 99.4288 94.254 99.1798 93.6315 98.9308Z" fill="#1483D4"/>
<path d="M50.9872 68.9867C51.423 69.8582 54.5357 74.2782 55.6562 72.4106C56.2165 71.4768 55.7807 69.1734 55.6562 68.1774C55.5317 66.7455 55.2827 65.3137 54.9092 63.8818C54.6602 62.8858 54.2866 61.8275 53.4774 61.1427C51.8588 59.7731 50.3024 61.0182 49.9289 62.7613C49.3686 64.8779 50.0534 67.119 50.9872 68.9867Z" fill="#F7A894"/>
<path d="M91.452 68.9867C91.0162 69.8582 87.9035 74.2782 86.783 72.4106C86.2227 71.4768 86.6585 69.1734 86.783 68.1774C86.9075 66.7455 87.1565 65.3137 87.53 63.8818C87.779 62.8858 88.1525 61.8275 88.9618 61.1427C90.5804 59.7731 92.1368 61.0182 92.5103 62.7613C93.0083 64.8779 92.3235 67.119 91.452 68.9867Z" fill="#F7A894"/>
<path d="M88.2768 62.948C88.2768 64.193 88.1523 65.3759 88.0901 66.6209C87.8411 70.3562 87.2185 74.0291 85.4132 77.3908C83.6078 80.628 80.8686 83.7407 77.6937 85.2971C72.5266 87.7872 66.3013 87.2269 61.6322 83.5539C58.3328 80.9393 56.2162 77.0173 55.1578 72.9708C54.0995 68.9243 53.9128 66.7454 54.224 62.5122C54.224 62.5122 53.726 50.8707 55.9671 46.2017C58.2083 41.4704 63.3753 38.4822 70.2232 38.7312C81.3044 39.1048 89.0239 41.4082 88.2768 62.948Z" fill="#FFD3B6"/>
<path d="M89.0244 40.1009C88.8999 38.1087 87.468 36.4901 85.5382 35.9921C82.301 35.1206 76.8849 34 71.4688 34C66.0528 34 60.6367 35.1206 57.3372 35.9299C55.4074 36.4279 54.0378 38.0465 53.851 40.0386C53.602 43.0268 53.2907 46.015 52.9795 49.0654C52.855 50.0615 52.5437 53.8589 52.2324 60.6446C52.2324 60.6446 53.9755 61.2671 54.2245 65.6249C54.1 62.948 54.2868 60.3333 54.7226 57.7187C55.3451 53.7344 54.8471 47.011 59.3916 45.0812C62.193 43.8983 64.5587 45.5169 67.0488 46.3885C69.4767 47.26 73.1497 47.5091 75.5776 46.6375C76.9472 46.1395 78.2545 45.4547 79.6241 45.2679C81.6162 44.9567 83.6706 45.6414 85.1647 47.011C87.7171 49.3767 87.468 53.6099 88.0283 56.8471C88.5264 59.6485 88.1528 62.8857 88.0906 65.6872C88.1528 64.3176 88.3396 62.8235 88.8999 61.5784C89.5847 60.2088 89.5847 59.3373 89.5224 57.7187C89.5224 54.5437 89.3979 45.3302 89.0244 40.1009Z" fill="#383849"/>
<path d="M66.5498 55.4775C64.1842 54.8549 61.6318 54.9794 59.3284 55.7887C58.9549 55.9132 58.6436 56.2867 58.7681 56.7225C58.8926 57.096 59.3284 57.4073 59.7019 57.2828C61.7563 56.5358 63.9974 56.4113 66.1141 56.9715C67.0479 57.2206 67.4836 55.7265 66.5498 55.4775Z" fill="#383849"/>
<path d="M76.3867 56.9715C78.5034 56.4113 80.7445 56.5358 82.7989 57.2828C83.1724 57.4073 83.6704 57.096 83.7327 56.7225C83.8572 56.2867 83.6082 55.9132 83.1724 55.7887C80.869 54.9794 78.3166 54.8549 75.951 55.4775C75.0171 55.7265 75.4529 57.2206 76.3867 56.9715Z" fill="#383849"/>
<path d="M79.6223 64.442C78.7507 64.442 77.9414 63.6327 77.9414 62.7612C78.0037 61.8274 78.6884 61.0803 79.6223 61.0803C80.4938 61.0803 81.3031 61.8896 81.3031 62.7612C81.2409 63.695 80.5561 64.442 79.6223 64.442Z" fill="#383849"/>
<path d="M62.9387 64.442C62.0671 64.442 61.2578 63.6327 61.2578 62.7612C61.3201 61.8274 62.0049 61.0803 62.9387 61.0803C63.8102 61.0803 64.6195 61.8896 64.6195 62.7612C64.5573 63.695 63.8725 64.442 62.9387 64.442Z" fill="#383849"/>
<path d="M73.0856 59.1504C72.7121 63.0101 72.8989 66.8698 73.5836 70.6051C73.6459 71.0408 74.1439 71.2276 74.5175 71.1653C74.9532 71.0408 75.14 70.6051 75.0777 70.2315C74.4552 66.5586 74.3307 62.8233 74.642 59.1504C74.7042 58.7146 74.2684 58.4033 73.8949 58.4033C73.3969 58.4033 73.0856 58.7146 73.0856 59.1504Z" fill="#F7A894"/>
<path d="M73.5844 71.2898C73.5222 71.2898 73.4599 71.2898 73.4599 71.2898C72.4639 71.2898 72.4639 72.8461 73.4599 72.8461C73.5222 72.8461 73.5844 72.8461 73.5844 72.8461C74.5805 72.8461 74.5805 71.2898 73.5844 71.2898Z" fill="#F7A894"/>
<path d="M68.915 72.7216H68.9773C69.9733 72.7216 69.9733 71.1653 68.9773 71.1653H68.915C67.919 71.2275 67.919 72.7216 68.915 72.7216Z" fill="#F7A894"/>
<path d="M65.3675 77.3286C67.1106 78.8849 69.663 78.2624 71.7796 78.4492C73.7717 78.6359 76.5731 78.8227 77.8182 76.8928C78.3785 76.0835 77.0089 75.2742 76.5109 76.0835C76.0751 76.7061 75.1413 76.8928 74.4565 76.9551C73.5227 77.0173 72.5889 76.9551 71.6551 76.8928C70.7213 76.8306 69.7252 76.8928 68.7914 76.8928C67.9821 76.8928 67.1106 76.8306 66.488 76.2703C65.741 75.5855 64.6204 76.6438 65.3675 77.3286Z" fill="#F7A894"/>
</g>
<defs>
<filter id="filter0_d_388_214" x="0" y="0" width="143" height="143" filterUnits="userSpaceOnUse" color-interpolation-filters="sRGB">
<feFlood flood-opacity="0" result="BackgroundImageFix"/>
<feColorMatrix in="SourceAlpha" type="matrix" values="0 0 0 0 0 0 0 0 0 0 0 0 0 0 0 0 0 0 127 0" result="hardAlpha"/>
<feOffset dy="4"/>
<feGaussianBlur stdDeviation="14.5"/>
<feComposite in2="hardAlpha" operator="out"/>
<feColorMatrix type="matrix" values="0 0 0 0 0.360784 0 0 0 0 0.823529 0 0 0 0 0.870588 0 0 0 0.44 0"/>
<feBlend mode="normal" in2="BackgroundImageFix" result="effect1_dropShadow_388_214"/>
<feBlend mode="normal" in="SourceGraphic" in2="effect1_dropShadow_388_214" result="shape"/>
</filter>
<linearGradient id="paint0_linear_388_214" x1="84" y1="-9.5" x2="-19.7175" y2="147.35" gradientUnits="userSpaceOnUse">
<stop offset="0.0406762" stop-color="#0DB899"/>
<stop offset="1" stop-color="#B8FEF1"/>
</linearGradient>
</defs>
</svg>
