<svg width="143" height="143" viewBox="0 0 143 143" fill="none" xmlns="http://www.w3.org/2000/svg">
<g filter="url(#filter0_d_324_448)">
<circle cx="71.5" cy="67.5" r="42.5" fill="url(#paint0_linear_324_448)"/>
</g>
<mask id="mask0_324_448" style="mask-type:alpha" maskUnits="userSpaceOnUse" x="29" y="25" width="85" height="85">
<circle cx="71.5" cy="67.5" r="42.5" fill="white"/>
</mask>
<g mask="url(#mask0_324_448)">
<path d="M82.6213 98.0805C81.4059 95.4067 80.1297 89.0259 80.1297 86.109C80.1297 83.9213 79.279 77.7229 71.1967 77.7229C63.1144 77.7229 62.3244 86.2306 62.3244 86.2306C62.7498 90.1198 61.3521 95.7105 60.1367 98.0805C60.1367 98.0805 70.2851 105.859 82.6213 98.0805Z" fill="#FFD3B6"/>
<path d="M80.1317 86.109C80.1317 83.9213 79.281 77.7229 71.1987 77.7229C63.1164 77.7229 62.3264 86.2306 62.3264 86.2306C62.4479 87.3244 62.3872 88.5398 62.2656 89.7552C66.7625 92.9759 72.5356 93.4013 77.3363 91.0921C78.3694 90.6059 79.4025 89.8767 80.314 89.0867C80.1925 87.9321 80.1317 86.899 80.1317 86.109Z" fill="#F7A894"/>
<path d="M51.3222 72.6187C51.7476 73.4694 54.7861 77.784 55.8799 75.961C56.4268 75.0494 56.0014 72.801 55.8799 71.8287C55.7584 70.431 55.5153 69.0333 55.1507 67.6356C54.9076 66.6633 54.543 65.6302 53.753 64.9618C52.173 63.6248 50.6538 64.8402 50.2892 66.5418C49.803 68.6079 50.4107 70.7348 51.3222 72.6187Z" fill="#F7A894"/>
<path d="M90.8203 72.6187C90.3949 73.4694 87.3565 77.784 86.2626 75.961C85.7157 75.0494 86.1411 72.801 86.2626 71.8287C86.3842 70.431 86.6273 69.0333 86.9919 67.6356C87.2349 66.6633 87.5996 65.6302 88.3896 64.9618C89.9695 63.6248 91.4888 64.8402 91.8534 66.5418C92.3395 68.6079 91.6711 70.7348 90.8203 72.6187Z" fill="#F7A894"/>
<path d="M87.7837 66.7244C87.7837 67.9397 87.6622 69.0944 87.6014 70.3097C87.3583 73.9559 86.7506 77.5413 84.9883 80.8228C83.226 83.9828 80.5522 87.0212 77.453 88.5404C72.4091 90.9712 66.3322 90.4243 61.7746 86.8389C58.5538 84.2866 56.4877 80.4582 55.4546 76.5082C54.4215 72.5582 54.2392 70.4313 54.5431 66.299C54.5431 66.299 55.5761 55.6644 57.7638 51.1067C59.9515 46.5491 63.8407 39.6821 70.5253 39.9252C81.2814 40.2291 88.4522 45.6375 87.7837 66.7244Z" fill="#FFD3B6"/>
<path d="M87.603 69.3372C87.7245 66.1772 87.7245 62.9564 86.9953 59.8572C86.6915 58.338 86.3269 56.8795 85.9622 55.3603C85.7799 54.5095 85.4761 53.598 85.233 52.7472C84.8076 51.3496 83.5315 50.6203 82.073 50.3773C81.9515 50.3773 81.8907 50.3165 81.8907 50.1949C81.8907 51.2888 81.8907 52.3826 81.5261 53.4157C81.1615 54.4488 80.3715 55.3603 79.2777 55.6034C78.2446 55.7857 77.2115 55.2995 76.4215 54.5703C75.6923 53.8411 75.2061 52.8688 74.72 51.9572C74.9023 52.808 75.0846 53.6588 74.9631 54.5095C74.8415 55.3603 74.4161 56.2111 73.6261 56.5757C72.7146 57.0011 71.6815 56.758 70.77 56.3934C69.3723 55.8465 68.0354 55.0565 66.82 54.0842C65.7262 53.2334 63.2954 50.3165 63.2954 50.3165C63.2954 50.3165 62.2016 50.3165 60.9254 50.2557C58.7985 50.1342 57.4008 50.8634 56.9147 52.6257C55.4562 58.0341 54.18 63.6249 54.4231 69.2156C54.18 65.0226 52.4785 64.3541 52.4785 64.3541C52.7824 59.9788 52.9647 55.6034 53.8762 51.3496C54.3016 49.3442 55.3954 47.3388 55.3954 45.3334C55.3954 44.4219 55.517 43.6927 56.307 43.0242C56.6716 42.7204 57.1577 42.538 57.6439 42.4773C57.7654 42.4773 58.92 42.538 58.92 42.6596C61.5331 38.345 66.03 35.185 70.9523 34.2127C72.2892 33.9696 73.7477 33.8481 75.0238 34.3342C76.3 34.8812 77.333 36.1573 77.2115 37.4942C79.8853 36.0965 83.0453 35.6711 85.9622 36.3396C87.0561 36.5827 88.2107 37.0688 88.9399 37.9804C89.6692 38.8919 89.7299 40.3504 88.8792 41.1404C90.3984 41.7481 91.6138 43.2065 91.9176 44.8473C92.1607 46.4273 91.553 48.1896 90.3376 49.3442C89.973 49.7088 89.5476 49.9519 89.2438 50.3773C88.5145 51.228 89.183 52.3219 89.3045 53.2942C89.4869 54.5095 89.5476 55.6642 89.6084 56.8795C89.6084 57.6088 89.8515 64.1718 89.4261 64.2326C89.4261 64.2326 87.9069 64.5364 87.603 69.3372Z" fill="#383849" stroke="#383849" stroke-width="1.2405" stroke-miterlimit="10" stroke-linecap="round" stroke-linejoin="round"/>
<path d="M66.5198 59.4317C64.2106 58.824 61.7191 58.9455 59.4706 59.7355C59.106 59.8571 58.8022 60.2217 58.9237 60.6471C59.0452 61.0117 59.4706 61.3155 59.8352 61.194C61.8406 60.4648 64.0283 60.3432 66.0944 60.8901C67.0668 61.1332 67.4314 59.6748 66.5198 59.4317Z" fill="#383849"/>
<path d="M76.1799 60.8899C78.2461 60.343 80.4338 60.4645 82.4391 61.1937C82.8038 61.3153 83.2899 61.0114 83.3507 60.6468C83.4722 60.2214 83.2291 59.8568 82.8038 59.7353C80.5553 58.9453 78.0638 58.8237 75.7545 59.4314C74.843 59.6745 75.2076 61.133 76.1799 60.8899Z" fill="#383849"/>
<path d="M79.2775 68.1824C78.4267 68.1824 77.6367 67.3924 77.6367 66.5416C77.6975 65.6301 78.3659 64.9009 79.2775 64.9009C80.1283 64.9009 80.9182 65.6909 80.9182 66.5416C80.8575 67.3924 80.189 68.1824 79.2775 68.1824Z" fill="#383849"/>
<path d="M62.9923 68.1824C62.1416 68.1824 61.3516 67.3924 61.3516 66.5416C61.4123 65.6301 62.0808 64.9009 62.9923 64.9009C63.8431 64.9009 64.6331 65.6909 64.6331 66.5416C64.5723 67.3924 63.9039 68.1824 62.9923 68.1824Z" fill="#383849"/>
<path d="M72.8975 63.0171C72.5329 66.7848 72.7152 70.5525 73.3837 74.1986C73.4444 74.624 73.9306 74.8063 74.2952 74.7455C74.7206 74.624 74.9029 74.1986 74.8421 73.834C74.2344 70.2486 74.1129 66.6025 74.4167 63.0171C74.4775 62.5917 74.0521 62.2879 73.6875 62.2879C73.2014 62.2271 72.9583 62.5917 72.8975 63.0171Z" fill="#F7A894"/>
<path d="M73.3859 74.8064C73.3252 74.8064 73.2644 74.8064 73.2644 74.8064C72.2921 74.8064 72.2921 76.3256 73.2644 76.3256C73.3252 76.3256 73.3859 76.3256 73.3859 76.3256C74.3582 76.3256 74.3582 74.8064 73.3859 74.8064Z" fill="#F7A894"/>
<path d="M68.8249 76.2646H68.8857C69.858 76.2646 69.858 74.7454 68.8857 74.7454H68.8249C67.8526 74.7454 67.8526 76.2646 68.8249 76.2646Z" fill="#F7A894"/>
<path d="M63.8445 79.5461C66.2753 82.0376 69.7999 83.1922 73.2637 82.706C73.6891 82.6453 73.8714 82.1591 73.8107 81.7945C73.6891 81.3691 73.2637 81.1868 72.8991 81.2476C69.9822 81.673 67.0045 80.5791 64.9384 78.513C64.2092 77.7838 63.1761 78.8776 63.8445 79.5461Z" fill="#F7A894"/>
<path d="M109.848 143.84C109.119 138.735 108.329 133.691 107.539 128.83L107.296 127.25C106.384 121.416 105.23 114.124 102.981 108.351C101.644 104.948 98.302 103.732 95.2635 102.699C94.4735 102.395 93.6835 102.152 92.9543 101.848C88.822 100.025 85.662 98.5061 81.712 95.9538L81.5297 95.8323H60.8075L60.6252 95.9538C56.7967 98.3846 54.1229 99.9646 49.8083 101.848C49.0791 102.152 48.3498 102.456 47.4991 102.699C44.5214 103.732 41.1183 104.948 39.7814 108.351C37.533 114.185 36.3783 121.416 35.4668 127.25L35.163 129.134C34.4337 133.934 33.6437 138.857 32.9145 143.84L32.793 144.63H109.909L109.848 143.84Z" fill="#1483D4"/>
<path d="M80.1284 94.7993L82.863 96.0147L71.8031 120.018L59.9531 96.0147L62.3839 94.7993H80.1284Z" fill="#FFD3B6"/>
<path d="M67.3097 104.947L71.8066 120.018L64.8789 108.229L67.3097 104.947Z" fill="#003459"/>
<path d="M61.8391 92.0645L57.2207 98.2021L62.2038 113.03L67.3084 104.947L61.8391 92.0645Z" fill="#0762A5"/>
<path d="M75.3901 104.947L71.8047 120.018L77.8208 108.229L75.3901 104.947Z" fill="#003459"/>
<path d="M80.8598 92.0645L85.4783 98.2021L80.4952 113.03L75.3906 104.947L80.8598 92.0645Z" fill="#0762A5"/>
</g>
<defs>
<filter id="filter0_d_324_448" x="0" y="0" width="143" height="143" filterUnits="userSpaceOnUse" color-interpolation-filters="sRGB">
<feFlood flood-opacity="0" result="BackgroundImageFix"/>
<feColorMatrix in="SourceAlpha" type="matrix" values="0 0 0 0 0 0 0 0 0 0 0 0 0 0 0 0 0 0 127 0" result="hardAlpha"/>
<feOffset dy="4"/>
<feGaussianBlur stdDeviation="14.5"/>
<feComposite in2="hardAlpha" operator="out"/>
<feColorMatrix type="matrix" values="0 0 0 0 0.360784 0 0 0 0 0.823529 0 0 0 0 0.870588 0 0 0 0.44 0"/>
<feBlend mode="normal" in2="BackgroundImageFix" result="effect1_dropShadow_324_448"/>
<feBlend mode="normal" in="SourceGraphic" in2="effect1_dropShadow_324_448" result="shape"/>
</filter>
<linearGradient id="paint0_linear_324_448" x1="84" y1="-9.5" x2="-19.7175" y2="147.35" gradientUnits="userSpaceOnUse">
<stop offset="0.0406762" stop-color="#0DB899"/>
<stop offset="1" stop-color="#B8FEF1"/>
</linearGradient>
</defs>
</svg>
