<svg width="324" height="2386" viewBox="0 0 324 2386" fill="none" xmlns="http://www.w3.org/2000/svg">
<path d="M125.003 365.5L125.993 365.636L125.003 365.5ZM159.504 1369L158.509 1369.11L159.504 1369ZM1 1897.5H0H1ZM86.003 2026L86.984 2025.81L86.003 2026ZM23.9997 2154.5L23.1792 2153.93L23.9997 2154.5ZM162.504 2366L162.2 2366.95L162.504 2366ZM449.599 2338.8C450.042 2338.47 450.135 2337.85 449.806 2337.4C449.477 2336.96 448.85 2336.87 448.407 2337.2L449.599 2338.8ZM408.697 0.407285C356.526 71.3006 292.084 114.868 237.144 164.659C182.234 214.422 137.056 270.245 124.012 365.364L125.993 365.636C138.95 271.155 183.771 215.728 238.487 166.141C293.171 116.582 357.979 72.6994 410.308 1.59272L408.697 0.407285ZM124.012 365.364C107.694 484.356 173.631 571.915 246.764 652.049C283.373 692.162 321.746 730.375 352.732 769.852C383.703 809.311 407.177 849.899 414.015 894.651L415.992 894.349C409.079 849.101 385.365 808.189 354.305 768.617C323.259 729.063 284.758 690.713 248.241 650.701C175.124 570.585 109.811 483.644 125.993 365.636L124.012 365.364ZM414.015 894.651C420.838 939.316 406.754 975.713 382.099 1009.12C357.408 1042.57 322.191 1072.93 286.809 1105.54C216.128 1170.68 145.013 1244.61 158.509 1369.11L160.498 1368.89C147.116 1245.45 217.502 1172.13 288.165 1107.01C323.455 1074.48 358.871 1043.96 383.708 1010.31C408.58 976.606 422.918 939.684 415.992 894.349L414.015 894.651ZM158.509 1369.11C171.805 1491.76 239.147 1564.47 296.431 1611.92C310.748 1623.78 324.442 1634.06 336.496 1643.15C348.565 1652.24 358.963 1660.11 366.746 1667.17C374.563 1674.27 379.568 1680.39 381.082 1685.97C381.828 1688.72 381.725 1691.33 380.682 1693.9C379.631 1696.48 377.598 1699.08 374.369 1701.73L375.638 1703.27C379.033 1700.49 381.32 1697.63 382.534 1694.65C383.756 1691.65 383.863 1688.58 383.012 1685.45C381.333 1679.26 375.921 1672.8 368.09 1665.69C360.225 1658.56 349.746 1650.63 337.7 1641.55C325.64 1632.46 311.983 1622.21 297.707 1610.38C240.62 1563.1 173.714 1490.81 160.498 1368.89L158.509 1369.11ZM374.369 1701.73C367.923 1707.02 357.293 1711.22 343.464 1714.83C329.667 1718.44 312.822 1721.43 294.052 1724.39C256.545 1730.29 211.387 1736.02 167.901 1746.15C124.419 1756.29 82.472 1770.86 51.38 1794.52C20.2395 1818.21 7.15852e-05 1851.03 0 1897.5H2C2.00007 1851.72 21.8866 1819.47 52.5911 1796.11C83.3442 1772.71 124.961 1758.21 168.355 1748.1C211.746 1737.98 256.776 1732.28 294.363 1726.36C313.14 1723.41 330.069 1720.4 343.97 1716.77C357.841 1713.14 368.835 1708.86 375.638 1703.27L374.369 1701.73ZM0 1897.5C-4.8399e-05 1928.9 19.5502 1951.16 39.81 1970.5C49.9861 1980.21 60.2926 1989.14 68.6076 1998.22C76.9123 2007.28 83.075 2016.34 85.022 2026.19L86.984 2025.81C84.9295 2015.41 78.4661 2006.02 70.0824 1996.86C61.709 1987.72 51.265 1978.66 41.1907 1969.05C20.9497 1949.73 1.99995 1927.99 2 1897.5H0ZM85.022 2026.19C88.8037 2045.33 84.0379 2061.96 72.9534 2081.48C61.8336 2101.06 44.4768 2123.36 23.1792 2153.93L24.8202 2155.07C46.0226 2124.64 63.513 2102.15 74.6925 2082.46C85.9074 2062.71 90.8933 2045.59 86.984 2025.81L85.022 2026.19ZM23.1792 2153.93C4.02778 2181.42 -4.93987 2220.79 12.8506 2260.29C30.6343 2299.77 75.0542 2339.16 162.2 2366.95L162.807 2365.05C75.953 2337.34 32.1353 2298.23 14.6742 2259.46C-2.78007 2220.71 6.00035 2182.08 24.8202 2155.07L23.1792 2153.93ZM162.2 2366.95C301.729 2411.46 411.861 2366.81 449.599 2338.8L448.407 2337.2C411.146 2364.85 301.678 2409.34 162.807 2365.05L162.2 2366.95Z" fill="#4776BA"/>
</svg>
