<svg width="24" height="24" viewBox="0 0 24 24" fill="none" xmlns="http://www.w3.org/2000/svg">
<g id="close">
<g id="Vector">
<path d="M4.26706 19.7331C3.91116 19.3772 3.91116 18.8001 4.26706 18.4442L18.4442 4.26705C18.8001 3.91115 19.3772 3.91115 19.7331 4.26705C20.089 4.62296 20.089 5.19999 19.7331 5.55589L5.5559 19.7331C5.2 20.089 4.62297 20.089 4.26706 19.7331Z" fill="#369CFB"/>
<path d="M4.26693 4.26693C4.62283 3.91102 5.19986 3.91102 5.55576 4.26693L19.7329 18.4441C20.0888 18.8 20.0888 19.377 19.7329 19.7329C19.377 20.0888 18.8 20.0888 18.4441 19.7329L4.26693 5.55576C3.91102 5.19986 3.91102 4.62283 4.26693 4.26693Z" fill="#369CFB"/>
</g>
</g>
</svg>
