<svg width="26" height="26" viewBox="0 0 26 26" fill="none" xmlns="http://www.w3.org/2000/svg">
<path d="M5.10732 9.23534C4.82317 9.40583 4.73103 9.77439 4.90152 10.0585C5.07201 10.3427 5.44056 10.4348 5.72471 10.2643L5.10732 9.23534ZM10.8327 6.49984L11.1927 6.01984C10.9975 5.87347 10.7332 5.85983 10.524 5.98534L10.8327 6.49984ZM15.166 9.74984L14.806 10.2298C15.0249 10.394 15.3272 10.3893 15.5408 10.2184L15.166 9.74984ZM20.9575 5.88503C21.2163 5.67802 21.2582 5.30044 21.0512 5.04169C20.8442 4.78293 20.4666 4.74098 20.2079 4.94798L20.9575 5.88503ZM18.8993 20.5832C18.8993 20.9145 19.168 21.1832 19.4993 21.1832C19.8307 21.1832 20.0993 20.9145 20.0993 20.5832H18.8993ZM20.0993 11.9165C20.0993 11.5851 19.8307 11.3165 19.4993 11.3165C19.168 11.3165 18.8993 11.5851 18.8993 11.9165H20.0993ZM10.2327 20.5832C10.2327 20.9145 10.5013 21.1832 10.8327 21.1832C11.1641 21.1832 11.4327 20.9145 11.4327 20.5832H10.2327ZM11.4327 11.9165C11.4327 11.5851 11.1641 11.3165 10.8327 11.3165C10.5013 11.3165 10.2327 11.5851 10.2327 11.9165H11.4327ZM14.566 20.5832C14.566 20.9145 14.8346 21.1832 15.166 21.1832C15.4974 21.1832 15.766 20.9145 15.766 20.5832H14.566ZM15.766 15.1665C15.766 14.8351 15.4974 14.5665 15.166 14.5665C14.8346 14.5665 14.566 14.8351 14.566 15.1665H15.766ZM5.89935 20.5832C5.89935 20.9145 6.16798 21.1832 6.49935 21.1832C6.83072 21.1832 7.09935 20.9145 7.09935 20.5832H5.89935ZM7.09935 15.1665C7.09935 14.8351 6.83072 14.5665 6.49935 14.5665C6.16798 14.5665 5.89935 14.8351 5.89935 15.1665H7.09935ZM5.72471 10.2643L11.1414 7.01433L10.524 5.98534L5.10732 9.23534L5.72471 10.2643ZM10.4727 6.97984L14.806 10.2298L15.526 9.26984L11.1927 6.01984L10.4727 6.97984ZM15.5408 10.2184L20.9575 5.88503L20.2079 4.94798L14.7912 9.28132L15.5408 10.2184ZM20.0993 20.5832V11.9165H18.8993V20.5832H20.0993ZM11.4327 20.5832V11.9165H10.2327V20.5832H11.4327ZM15.766 20.5832V15.1665H14.566V20.5832H15.766ZM7.09935 20.5832V15.1665H5.89935V20.5832H7.09935Z" fill="white"/>
</svg>
