<svg width="26" height="26" viewBox="0 0 26 26" fill="none" xmlns="http://www.w3.org/2000/svg">
<path fill-rule="evenodd" clip-rule="evenodd" d="M20.5827 12.9998C20.5827 17.188 17.1875 20.5832 12.9993 20.5832C8.81119 20.5832 5.41602 17.188 5.41602 12.9998C5.41602 8.81168 8.81119 5.4165 12.9993 5.4165C15.0106 5.4165 16.9394 6.21546 18.3616 7.63761C19.7837 9.05976 20.5827 10.9886 20.5827 12.9998Z" stroke="white" stroke-width="1.2" stroke-linecap="round" stroke-linejoin="round"/>
<path d="M12.9997 16.2683C12.6683 16.2683 12.3997 16.5369 12.3997 16.8683C12.3997 17.1996 12.6683 17.4683 12.9997 17.4683V16.2683ZM11.3747 11.9163L11.7927 11.486C11.7695 11.4634 11.7445 11.4427 11.7179 11.4242L11.3747 11.9163ZM10.833 10.833L11.4327 10.8537C11.4329 10.8468 11.433 10.8399 11.433 10.833H10.833ZM12.9997 9.73109C13.3311 9.73109 13.5997 9.46246 13.5997 9.13109C13.5997 8.79972 13.3311 8.53109 12.9997 8.53109V9.73109ZM12.9752 17.4688C13.3063 17.4824 13.5857 17.225 13.5992 16.8939C13.6127 16.5628 13.3553 16.2834 13.0242 16.2698L12.9752 17.4688ZM11.4276 14.3659C11.472 14.0375 11.2417 13.7353 10.9133 13.691C10.585 13.6466 10.2828 13.8769 10.2384 14.2053L11.4276 14.3659ZM13.5997 16.8683C13.5997 16.5369 13.3311 16.2683 12.9997 16.2683C12.6683 16.2683 12.3997 16.5369 12.3997 16.8683H13.5997ZM12.3997 18.4163C12.3997 18.7477 12.6683 19.0163 12.9997 19.0163C13.3311 19.0163 13.5997 18.7477 13.5997 18.4163H12.3997ZM12.9659 8.53204C12.6351 8.55069 12.382 8.83401 12.4007 9.16485C12.4193 9.4957 12.7026 9.74879 13.0335 9.73014L12.9659 8.53204ZM14.6432 9.79955L14.2009 10.205V10.205L14.6432 9.79955ZM14.5725 11.4092C14.5252 11.7372 14.7527 12.0415 15.0807 12.0888C15.4087 12.1361 15.7129 11.9086 15.7602 11.5806L14.5725 11.4092ZM12.3997 9.13109C12.3997 9.46246 12.6683 9.73109 12.9997 9.73109C13.3311 9.73109 13.5997 9.46246 13.5997 9.13109H12.3997ZM13.5997 7.58301C13.5997 7.25164 13.3311 6.98301 12.9997 6.98301C12.6683 6.98301 12.3997 7.25164 12.3997 7.58301H13.5997ZM12.9997 17.4683C13.4332 17.4683 14.0855 17.3688 14.6521 17.0445C15.2482 16.7032 15.7664 16.0942 15.7664 15.1458H14.5664C14.5664 15.5753 14.3624 15.8276 14.0559 16.003C13.7198 16.1954 13.2888 16.2683 12.9997 16.2683V17.4683ZM15.7664 15.1458C15.7664 14.5574 15.5832 14.0878 15.256 13.7099C14.9488 13.3551 14.5406 13.1129 14.1553 12.9139C13.3372 12.4913 12.5213 12.1937 11.7927 11.486L10.9566 12.3467C11.8531 13.2174 12.9331 13.6332 13.6045 13.98C13.964 14.1657 14.199 14.3223 14.3488 14.4954C14.4787 14.6454 14.5664 14.8327 14.5664 15.1458H15.7664ZM11.7179 11.4242C11.5323 11.2947 11.4249 11.0799 11.4327 10.8537L10.2334 10.8123C10.2115 11.4453 10.512 12.0462 11.0315 12.4085L11.7179 11.4242ZM11.433 10.833C11.433 10.5176 11.5022 10.3226 11.5794 10.1985C11.6565 10.0746 11.7661 9.98207 11.9106 9.9109C12.225 9.75598 12.6398 9.73109 12.9997 9.73109V8.53109C12.637 8.53109 11.9685 8.54466 11.3802 8.83444C11.0734 8.98563 10.7768 9.217 10.5605 9.56456C10.3444 9.91193 10.233 10.3359 10.233 10.833H11.433ZM13.0242 16.2698C12.5517 16.2505 12.1092 16.033 11.8053 15.6706L10.8858 16.4416C11.4067 17.0628 12.1652 17.4357 12.9752 17.4688L13.0242 16.2698ZM11.8053 15.6706C11.5014 15.3082 11.3643 14.8346 11.4276 14.3659L10.2384 14.2053C10.1299 15.0086 10.365 15.8205 10.8858 16.4416L11.8053 15.6706ZM12.3997 16.8683V18.4163H13.5997V16.8683H12.3997ZM13.0335 9.73014C13.4741 9.7053 13.9027 9.8796 14.2009 10.205L15.0855 9.39414C14.5441 8.8034 13.766 8.48695 12.9659 8.53204L13.0335 9.73014ZM14.2009 10.205C14.4991 10.5303 14.6355 10.9724 14.5725 11.4092L15.7602 11.5806C15.8746 10.7875 15.627 9.98487 15.0855 9.39414L14.2009 10.205ZM13.5997 9.13109V7.58301H12.3997V9.13109H13.5997Z" fill="white"/>
</svg>
