<svg width="26" height="26" viewBox="0 0 26 26" fill="none" xmlns="http://www.w3.org/2000/svg">
<path fill-rule="evenodd" clip-rule="evenodd" d="M15.7954 21.0208C15.8859 21.6549 15.4483 22.2433 14.815 22.3392L12.9994 22.7324C12.5993 22.8783 12.151 22.7784 11.8508 22.4764C11.5506 22.1744 11.4533 21.7255 11.6016 21.3263C11.7498 20.9272 12.1166 20.6506 12.5411 20.6178L14.3557 20.2256C14.9725 20.0511 15.6147 20.4058 15.7954 21.0208V21.0208Z" stroke="white" stroke-width="1.2" stroke-linecap="round" stroke-linejoin="round"/>
<path fill-rule="evenodd" clip-rule="evenodd" d="M7.58268 17.3245C6.38607 17.3245 5.41602 16.3545 5.41602 15.1579V11.9079C5.41602 10.7113 6.38607 9.74121 7.58268 9.74121C8.7793 9.74121 9.74935 10.7113 9.74935 11.9079V15.1579C9.74935 16.3545 8.7793 17.3245 7.58268 17.3245Z" stroke="white" stroke-width="1.2" stroke-linecap="round" stroke-linejoin="round"/>
<path fill-rule="evenodd" clip-rule="evenodd" d="M18.4167 17.3245C17.22 17.3245 16.25 16.3545 16.25 15.1579V11.9079C16.25 10.7113 17.22 9.74121 18.4167 9.74121C19.6133 9.74121 20.5833 10.7113 20.5833 11.9079V15.1579C20.5833 16.3545 19.6133 17.3245 18.4167 17.3245Z" stroke="white" stroke-width="1.2" stroke-linecap="round" stroke-linejoin="round"/>
<path d="M19.9827 11.9165C19.9827 12.2479 20.2513 12.5165 20.5827 12.5165C20.9141 12.5165 21.1827 12.2479 21.1827 11.9165H19.9827ZM4.81602 11.9165C4.81602 12.2479 5.08464 12.5165 5.41602 12.5165C5.74739 12.5165 6.01602 12.2479 6.01602 11.9165H4.81602ZM21.1827 15.1683C21.1837 14.837 20.9159 14.5675 20.5845 14.5665C20.2531 14.5655 19.9837 14.8333 19.9827 15.1647L21.1827 15.1683ZM14.683 21.7602C14.3596 21.8326 14.1561 22.1533 14.2284 22.4767C14.3007 22.8001 14.6215 23.0036 14.9449 22.9313L14.683 21.7602ZM21.1827 11.9165V9.74984H19.9827V11.9165H21.1827ZM21.1827 9.74984C21.1827 5.23031 17.5189 1.5665 12.9993 1.5665V2.7665C16.8561 2.7665 19.9827 5.89305 19.9827 9.74984H21.1827ZM12.9993 1.5665C8.47982 1.5665 4.81602 5.23031 4.81602 9.74984H6.01602C6.01602 5.89305 9.14256 2.7665 12.9993 2.7665V1.5665ZM4.81602 9.74984V11.9165H6.01602V9.74984H4.81602ZM19.9827 15.1647C19.9731 18.331 17.773 21.069 14.683 21.7602L14.9449 22.9313C18.5818 22.1178 21.1713 18.8951 21.1827 15.1683L19.9827 15.1647Z" fill="white"/>
</svg>
