<svg width="26" height="26" viewBox="0 0 26 26" fill="none" xmlns="http://www.w3.org/2000/svg">
<path d="M9.70411 16.7718C10.0337 16.7371 10.2727 16.4418 10.2379 16.1123C10.2032 15.7827 9.90794 15.5437 9.57839 15.5784L9.70411 16.7718ZM6.11608 17.2834L5.8262 16.758C5.81195 16.7659 5.79803 16.7743 5.78447 16.7833L6.11608 17.2834ZM5.64375 18.8239L5.17955 19.204C5.19974 19.2287 5.22186 19.2517 5.2457 19.2728L5.64375 18.8239ZM8.43333 20.1141L8.56646 19.5291C8.55033 19.5254 8.53406 19.5224 8.51769 19.5201L8.43333 20.1141ZM12.9996 20.5832L13.0111 19.9833C13.0035 19.9832 12.9958 19.9832 12.9882 19.9833L12.9996 20.5832ZM17.5658 20.1152L17.4815 19.5212C17.4652 19.5235 17.4489 19.5265 17.4329 19.5301L17.5658 20.1152ZM20.3554 18.8249L20.7535 19.2739C20.7773 19.2528 20.7994 19.2298 20.8196 19.2051L20.3554 18.8249ZM19.8831 17.2844L20.2147 16.7844C20.2012 16.7755 20.1873 16.767 20.1731 16.7592L19.8831 17.2844ZM16.4209 15.5784C16.0914 15.5436 15.796 15.7826 15.7612 16.1121C15.7264 16.4416 15.9654 16.737 16.2949 16.7718L16.4209 15.5784ZM12.9996 15.8458L12.5865 16.281C12.8181 16.5007 13.1811 16.5007 13.4126 16.281L12.9996 15.8458ZM9.78208 12.7919L10.1952 12.3567L10.1902 12.352L9.78208 12.7919ZM9.78208 6.68186L10.1902 7.12169L10.1908 7.12113L9.78208 6.68186ZM16.2171 6.68186L15.8084 7.12113L15.809 7.12169L16.2171 6.68186ZM16.2171 12.7919L15.8089 12.352L15.804 12.3567L16.2171 12.7919ZM12.9996 11.3749L12.9891 11.9748L12.9944 11.9748L12.9996 11.3749ZM11.535 9.86644L12.135 9.87368L11.535 9.86644ZM13.0355 8.39379L13.0396 7.79381L13.0355 8.39379ZM14.5163 9.88637L15.1162 9.8924L15.1163 9.88715L14.5163 9.88637ZM9.57839 15.5784C8.26144 15.7172 6.98562 16.1182 5.8262 16.758L6.40597 17.8087C7.42509 17.2463 8.54653 16.8938 9.70411 16.7718L9.57839 15.5784ZM5.78447 16.7833C5.36718 17.0601 5.01374 17.4152 4.87566 17.8655C4.72485 18.3573 4.87004 18.8261 5.17955 19.204L6.10795 18.4437C5.99604 18.3071 6.01395 18.2466 6.02293 18.2173C6.04464 18.1465 6.13808 17.9887 6.4477 17.7834L5.78447 16.7833ZM5.2457 19.2728C6.11694 20.0453 7.19616 20.5445 8.34898 20.7082L8.51769 19.5201C7.59793 19.3895 6.73691 18.9912 6.04181 18.3749L5.2457 19.2728ZM8.30021 20.6992C9.84507 21.0507 11.4269 21.2132 13.011 21.1831L12.9882 19.9833C11.5013 20.0115 10.0165 19.859 8.56646 19.5291L8.30021 20.6992ZM12.9881 21.1831C14.5721 21.2135 16.1539 21.0514 17.6988 20.7003L17.4329 19.5301C15.9827 19.8597 14.4979 20.0119 13.0111 19.9833L12.9881 21.1831ZM17.6502 20.7092C18.803 20.5455 19.8822 20.0464 20.7535 19.2739L19.9574 18.376C19.2623 18.9923 18.4012 19.3906 17.4815 19.5212L17.6502 20.7092ZM20.8196 19.2051C21.1291 18.8272 21.2743 18.3584 21.1235 17.8666C20.9854 17.4163 20.632 17.0612 20.2147 16.7844L19.5515 17.7845C19.8611 17.9898 19.9545 18.1476 19.9762 18.2184C19.9852 18.2477 20.0031 18.3081 19.8912 18.4448L20.8196 19.2051ZM20.1731 16.7592C19.0138 16.119 17.738 15.7175 16.4209 15.5784L16.2949 16.7718C17.4526 16.8941 18.574 17.247 19.593 17.8097L20.1731 16.7592ZM13.4126 15.4106L10.1951 12.3567L9.36903 13.227L12.5865 16.281L13.4126 15.4106ZM10.1902 12.352C9.46267 11.677 9.04924 10.7293 9.04924 9.73687H7.84924C7.84924 11.0632 8.40173 12.3295 9.37397 13.2317L10.1902 12.352ZM9.04924 9.73687C9.04924 8.74438 9.46267 7.79676 10.1902 7.12169L9.37397 6.24204C8.40173 7.14418 7.84924 8.41055 7.84924 9.73687H9.04924ZM10.1908 7.12113C11.7737 5.6483 14.2255 5.6483 15.8084 7.12113L16.6258 6.2426C14.5822 4.34114 11.4169 4.34114 9.37337 6.2426L10.1908 7.12113ZM15.809 7.12169C16.5365 7.79676 16.9499 8.74438 16.9499 9.73687H18.1499C18.1499 8.41055 17.5974 7.14418 16.6252 6.24204L15.809 7.12169ZM16.9499 9.73687C16.9499 10.7293 16.5365 11.677 15.809 12.352L16.6252 13.2317C17.5974 12.3295 18.1499 11.0632 18.1499 9.73687H16.9499ZM15.804 12.3567L12.5865 15.4106L13.4126 16.281L16.6301 13.227L15.804 12.3567ZM13.0101 10.775C12.5201 10.7664 12.1291 10.3637 12.135 9.87368L10.9351 9.85921C10.9212 11.0094 11.839 11.9547 12.9891 11.9748L13.0101 10.775ZM12.135 9.87368C12.1409 9.38369 12.5415 8.9905 13.0315 8.99378L13.0396 7.79381C11.8893 7.78612 10.9489 8.70904 10.9351 9.85921L12.135 9.87368ZM13.0315 8.99378C13.5216 8.99705 13.9169 9.39555 13.9163 9.88558L15.1163 9.88715C15.1177 8.73689 14.1898 7.80149 13.0396 7.79381L13.0315 8.99378ZM13.9163 9.88034C13.9113 10.3789 13.5034 10.7792 13.0048 10.7749L12.9944 11.9748C14.155 11.9849 15.1046 11.053 15.1162 9.89239L13.9163 9.88034Z" fill="white"/>
</svg>
