<svg width="143" height="143" viewBox="0 0 143 143" fill="none" xmlns="http://www.w3.org/2000/svg">
<g filter="url(#filter0_d_324_422)">
<circle cx="71.5" cy="67.5" r="42.5" fill="url(#paint0_linear_324_422)"/>
</g>
<mask id="mask0_324_422" style="mask-type:alpha" maskUnits="userSpaceOnUse" x="29" y="25" width="85" height="85">
<circle cx="71.5" cy="67.5" r="42.5" fill="white"/>
</mask>
<g mask="url(#mask0_324_422)">
<path d="M110.875 143.197C110.128 138.006 109.319 132.878 108.51 127.934L108.261 126.328C107.327 120.396 106.144 112.981 103.841 107.111C102.471 103.65 99.0473 102.414 95.9346 101.364C95.1253 101.055 94.316 100.808 93.569 100.499C89.3357 98.6452 86.0985 97.1004 82.052 94.5052L81.8652 94.3816H60.699L60.5122 94.5052C56.5902 96.9768 53.8511 98.5834 49.431 100.499C48.684 100.808 47.937 101.117 47.0654 101.364C44.015 102.414 40.5288 103.65 39.1592 107.111C36.8558 113.043 35.673 120.396 34.7392 126.328L34.4279 128.243C33.6809 133.125 32.8716 138.13 32.1245 143.197L32 144H111L110.875 143.197Z" fill="#1483D4"/>
<path d="M80.496 93.3313C80.496 93.3313 84.2934 94.5053 83.2351 99.7576C82.1768 105.01 71.3447 117.121 71.3447 117.121C71.3447 117.121 60.8238 105.01 59.7655 99.7576C58.7071 94.5053 62.2556 93.3313 62.2556 93.3313H80.496Z" fill="#FFD3B6"/>
<path d="M82.9853 96.6681C81.7402 93.9493 80.4329 87.4612 80.4329 84.4952C80.4329 82.2707 79.5613 75.968 71.2816 75.968C63.0019 75.968 62.2548 84.6806 62.2548 84.6806C62.6906 88.6352 61.2587 94.32 60.0137 96.7299C60.0137 96.6681 70.41 104.577 82.9853 96.6681Z" fill="#FFD3B6"/>
<path d="M80.4339 84.4953C80.4339 83.692 80.3094 82.3326 79.7491 80.9114C79.3756 81.0968 78.9398 81.2204 78.5663 81.3439C76.761 79.6138 74.3953 78.5633 71.9052 78.3162C71.7184 78.3162 70.5356 78.3162 70.3488 78.3162C67.8587 78.5015 65.493 79.6138 63.6877 81.3439C63.5009 81.2821 63.3764 81.2204 63.1896 81.1586C62.3803 83.0123 62.1936 84.6189 62.1936 84.6189C62.3804 86.5344 62.1313 88.8207 61.7578 90.9216C61.8823 90.9834 61.9446 91.107 62.0691 91.1687C63.7499 92.4664 65.5553 93.5786 67.6097 94.1965C68.7925 94.5055 69.9753 94.6291 71.1581 94.5673C72.341 94.6291 73.5238 94.5055 74.7066 94.1965C76.761 93.6404 78.5663 92.4664 80.2472 91.1687C80.5584 90.9216 80.932 90.6126 81.2432 90.3655C80.7452 88.141 80.4339 85.9165 80.4339 84.4953Z" fill="#F7A894"/>
<path d="M50.9872 70.7773C51.423 71.6424 54.5357 76.0296 55.6562 74.1758C56.2165 73.249 55.7807 70.9627 55.6562 69.974C55.5317 68.5528 55.2827 67.1316 54.9092 65.7104C54.6602 64.7218 54.2866 63.6713 53.4774 62.9916C51.8588 61.6322 50.3024 62.868 49.9289 64.5982C49.3686 66.6991 50.0534 68.8618 50.9872 70.7773Z" fill="#F7A894"/>
<path d="M91.452 70.7773C91.0162 71.6424 87.9035 76.0296 86.783 74.1758C86.2227 73.249 86.6585 70.9627 86.783 69.974C86.9075 68.5528 87.1565 67.1316 87.53 65.7104C87.779 64.7218 88.1525 63.6713 88.9618 62.9916C90.5804 61.6322 92.1368 62.868 92.5103 64.5982C93.0083 66.6991 92.3235 68.8618 91.452 70.7773Z" fill="#F7A894"/>
<path d="M88.2768 64.7837C88.2768 66.0195 88.1523 67.1935 88.0901 68.4294C87.841 72.1368 87.2185 75.7825 85.4132 79.1192C83.6078 82.3324 80.8686 85.4219 77.6937 86.9667C72.5266 89.4384 66.3013 88.8823 61.6322 85.2366C58.3328 82.6413 56.2162 78.7485 55.1578 74.7321C54.0995 70.7156 53.9128 68.5529 54.224 64.3511C54.224 64.3511 55.2823 53.5377 57.5235 48.9033C59.7646 44.269 63.7489 37.2866 70.5968 37.5337C81.6779 37.8427 89.0239 43.3421 88.2768 64.7837Z" fill="#FFD3B6"/>
<path d="M90.0209 49.3359C88.5891 41.4266 82.924 35.6182 75.5781 34.4442C71.9673 33.8881 65.3684 33.3937 60.7617 35.989C53.1045 40.3762 52.5442 50.6953 52.0461 58.9753C51.9839 60.2111 51.9216 61.3234 51.8594 62.4356C51.8594 62.621 51.9216 62.7446 52.1084 62.8064C52.1084 62.8064 53.6647 63.4861 53.8515 67.3789C53.8515 67.5643 54.0383 67.7497 54.225 67.7497C54.4118 67.7497 54.5985 67.5643 54.5985 67.3789C54.5363 64.6601 54.9098 61.9413 55.2833 59.2843C55.5323 57.7395 55.7191 56.1947 55.8436 54.6499C59.7033 55.6386 63.9366 55.1443 67.4851 53.3523L66.6135 55.0207C66.5513 55.1443 66.5513 55.2678 66.6135 55.3914C66.6758 55.515 66.8003 55.5768 66.9248 55.5768C73.8349 56.0711 80.8074 52.2401 84.1691 46.1845C84.9161 47.6675 85.5386 49.2123 85.9122 50.8189C86.0989 51.5604 86.1612 52.4255 86.2234 53.2287C86.2857 54.1556 86.4102 55.0825 86.6592 56.0093C87.5308 58.9135 87.9665 61.5706 87.7798 67.4407C87.7798 67.6261 87.9665 67.8115 88.1533 67.8115C88.3401 67.8115 88.5268 67.6261 88.5268 67.4407C88.7758 63.0535 90.0832 62.5592 90.0832 62.5592C90.2699 62.4974 90.3944 62.3738 90.3944 62.1885C90.7057 57.307 90.768 53.5377 90.0209 49.3359Z" fill="#383849"/>
<path d="M78.6283 77.6364C76.8229 75.9062 74.4573 74.8558 71.9672 74.6086C71.7804 74.6086 70.5976 74.6086 70.4108 74.6086C67.9207 74.794 65.555 75.9062 63.7497 77.6364C57.5243 75.968 53.7891 65.5253 53.7891 65.1545C53.8513 68.1205 54.2248 71.6426 54.7229 74.6086C54.7851 74.8558 54.7851 75.1029 54.8474 75.3501C55.2832 77.76 55.7189 80.0462 57.0885 82.2089C58.3958 84.248 60.2012 85.9782 62.1311 87.523C63.8119 88.8206 65.6173 89.9328 67.6716 90.5507C68.8545 90.8597 70.0373 90.9833 71.2201 90.9215C72.4029 90.9833 73.5858 90.8597 74.7686 90.5507C76.8229 89.9946 78.6283 88.8206 80.3092 87.523C82.239 86.04 84.0444 84.3098 85.3517 82.2089C86.7213 80.0462 87.2193 77.76 87.5928 75.3501C87.6551 75.1029 87.6551 74.8558 87.7174 74.6086C88.2154 71.6426 88.4644 68.6766 88.5267 65.7107C88.4644 66.0814 84.8537 75.968 78.6283 77.6364Z" fill="#383849"/>
<path d="M66.4886 78.6868C66.4886 78.6868 67.1734 81.282 71.2199 81.282C72.6517 81.282 74.7683 81.0966 75.7021 78.6868C75.7021 78.6868 66.4263 78.8104 66.4886 78.6868Z" fill="#FFD3B6"/>
<path d="M66.5498 57.3688C64.1842 56.7509 61.6318 56.8745 59.3284 57.6778C58.9549 57.8014 58.6436 58.1721 58.7681 58.6046C58.8926 58.9754 59.3284 59.2843 59.7019 59.1608C61.7563 58.4193 63.9974 58.2957 66.1141 58.8518C67.0479 59.099 67.4836 57.616 66.5498 57.3688Z" fill="#383849"/>
<path d="M76.3867 58.8518C78.5034 58.2957 80.7445 58.4193 82.7989 59.1608C83.1724 59.2843 83.6704 58.9754 83.7327 58.6046C83.8572 58.1721 83.6082 57.8014 83.1724 57.6778C80.869 56.8745 78.3166 56.7509 75.951 57.3688C75.0171 57.616 75.4529 59.099 76.3867 58.8518Z" fill="#383849"/>
<path d="M79.6242 66.2667C78.7527 66.2667 77.9434 65.4634 77.9434 64.5983C78.0056 63.6714 78.6904 62.9299 79.6242 62.9299C80.4958 62.9299 81.3051 63.7332 81.3051 64.5983C81.2428 65.4634 80.558 66.2667 79.6242 66.2667Z" fill="#383849"/>
<path d="M62.9406 66.2667C62.0691 66.2667 61.2598 65.4634 61.2598 64.5983C61.322 63.6714 62.0068 62.9299 62.9406 62.9299C63.8122 62.9299 64.6215 63.7332 64.6215 64.5983C64.5592 65.4634 63.8744 66.2667 62.9406 66.2667Z" fill="#383849"/>
<path d="M73.0876 61.0146C72.714 64.8457 72.9008 68.6767 73.5856 72.3842C73.6479 72.8167 74.1459 73.0021 74.5194 72.9403C74.9552 72.8167 75.1419 72.3842 75.0797 72.0135C74.4572 68.3678 74.3326 64.6603 74.6439 61.0146C74.7062 60.5821 74.2704 60.2731 73.8969 60.2731C73.3988 60.2113 73.0876 60.5821 73.0876 61.0146Z" fill="#F7A894"/>
<path d="M73.5864 73.002C73.5241 73.002 73.4619 73.002 73.4619 73.002C72.4658 73.002 72.4658 74.5467 73.4619 74.5467C73.5241 74.5467 73.5864 74.5467 73.5864 74.5467C74.5825 74.5467 74.5825 73.002 73.5864 73.002Z" fill="#F7A894"/>
<path d="M68.917 74.485H68.9792C69.9753 74.485 69.9753 72.9402 68.9792 72.9402H68.917C67.9209 72.9402 67.9209 74.485 68.917 74.485Z" fill="#F7A894"/>
</g>
<defs>
<filter id="filter0_d_324_422" x="0" y="0" width="143" height="143" filterUnits="userSpaceOnUse" color-interpolation-filters="sRGB">
<feFlood flood-opacity="0" result="BackgroundImageFix"/>
<feColorMatrix in="SourceAlpha" type="matrix" values="0 0 0 0 0 0 0 0 0 0 0 0 0 0 0 0 0 0 127 0" result="hardAlpha"/>
<feOffset dy="4"/>
<feGaussianBlur stdDeviation="14.5"/>
<feComposite in2="hardAlpha" operator="out"/>
<feColorMatrix type="matrix" values="0 0 0 0 0.360784 0 0 0 0 0.823529 0 0 0 0 0.870588 0 0 0 0.44 0"/>
<feBlend mode="normal" in2="BackgroundImageFix" result="effect1_dropShadow_324_422"/>
<feBlend mode="normal" in="SourceGraphic" in2="effect1_dropShadow_324_422" result="shape"/>
</filter>
<linearGradient id="paint0_linear_324_422" x1="84" y1="-9.5" x2="-19.7175" y2="147.35" gradientUnits="userSpaceOnUse">
<stop offset="0.0406762" stop-color="#0DB899"/>
<stop offset="1" stop-color="#B8FEF1"/>
</linearGradient>
</defs>
</svg>
