<svg width="26" height="26" viewBox="0 0 26 26" fill="none" xmlns="http://www.w3.org/2000/svg">
<path fill-rule="evenodd" clip-rule="evenodd" d="M10.6222 9.77128C9.88881 10.8719 9.22906 11.9737 8.8239 12.6963L7.80665 11.64C7.17383 10.9716 7.17383 9.92512 7.80665 9.2567C8.10616 8.9425 8.52089 8.76409 8.95498 8.7627H11.3221C11.0859 9.08661 10.8508 9.42461 10.6222 9.77128Z" stroke="white" stroke-width="1.2" stroke-linecap="round" stroke-linejoin="round"/>
<path fill-rule="evenodd" clip-rule="evenodd" d="M16.2277 15.3776C15.1271 16.111 14.0253 16.7707 13.3027 17.1759L14.359 18.1932C15.0274 18.826 16.0739 18.826 16.7423 18.1932C17.0565 17.8936 17.2349 17.4789 17.2363 17.0448V14.6777C16.9124 14.9139 16.5744 15.149 16.2277 15.3776Z" stroke="white" stroke-width="1.2" stroke-linecap="round" stroke-linejoin="round"/>
<path d="M8.35262 14.7237C8.58688 14.4893 8.5868 14.1094 8.35244 13.8752C8.11807 13.6409 7.73817 13.641 7.50391 13.8753L8.35262 14.7237ZM4.99166 16.3887C4.7574 16.623 4.75748 17.0029 4.99184 17.2372C5.22621 17.4715 5.60611 17.4714 5.84037 17.237L4.99166 16.3887ZM10.2366 16.6097C10.4708 16.3753 10.4707 15.9954 10.2363 15.7611C10.0018 15.5269 9.62195 15.5271 9.38774 15.7615L10.2366 16.6097ZM8.13324 17.0171C7.89902 17.2515 7.89919 17.6314 8.1336 17.8656C8.36802 18.0998 8.74792 18.0997 8.98213 17.8653L8.13324 17.0171ZM9.24685 12.2671C9.01225 12.033 8.63235 12.0335 8.39832 12.2681C8.16429 12.5027 8.16475 12.8826 8.39935 13.1166L9.24685 12.2671ZM11.0678 14.9311L11.4925 14.5073L11.4915 14.5063L11.0678 14.9311ZM12.8822 17.5995C13.1163 17.8341 13.4962 17.8346 13.7308 17.6005C13.9654 17.3665 13.9658 16.9866 13.7318 16.752L12.8822 17.5995ZM10.8233 8.42144C10.6384 8.69648 10.7116 9.06928 10.9866 9.2541C11.2617 9.43892 11.6344 9.36579 11.8193 9.09075L10.8233 8.42144ZM13.2908 6.44751L12.9072 5.98609C12.8986 5.9933 12.8901 6.00075 12.8818 6.00844L13.2908 6.44751ZM20.4808 5.51801L21.0779 5.45852C21.0496 5.1742 20.8247 4.9493 20.5403 4.92097L20.4808 5.51801ZM19.5513 12.7092L19.9904 13.1181C19.9982 13.1098 20.0057 13.1013 20.0129 13.0925L19.5513 12.7092ZM16.9081 14.1807C16.6331 14.3655 16.5599 14.7383 16.7448 15.0133C16.9296 15.2884 17.3024 15.3615 17.5774 15.1767L16.9081 14.1807ZM12.1235 18.495C12.3579 18.2607 12.358 17.8808 12.1237 17.6464C11.8894 17.4121 11.5095 17.412 11.2752 17.6462L12.1235 18.495ZM8.76184 20.1585C8.52748 20.3928 8.5274 20.7727 8.76166 21.007C8.99592 21.2414 9.37582 21.2415 9.61019 21.0072L8.76184 20.1585ZM18.1155 8.73186C18.3498 8.49754 18.3498 8.11765 18.1155 7.88333C17.8812 7.64902 17.5013 7.64902 17.267 7.88333L18.1155 8.73186ZM15.9269 9.22341C15.6926 9.45773 15.6926 9.83763 15.9269 10.0719C16.1612 10.3063 16.5411 10.3063 16.7754 10.0719L15.9269 9.22341ZM7.50391 13.8753L4.99166 16.3887L5.84037 17.237L8.35262 14.7237L7.50391 13.8753ZM9.38774 15.7615L8.13324 17.0171L8.98213 17.8653L10.2366 16.6097L9.38774 15.7615ZM8.39935 13.1166L10.644 15.3559L11.4915 14.5063L9.24685 12.2671L8.39935 13.1166ZM10.643 15.3548L12.8822 17.5995L13.7318 16.752L11.4925 14.5073L10.643 15.3548ZM11.8193 9.09075C12.3597 8.28651 12.9906 7.54695 13.6997 6.88658L12.8818 6.00844C12.1056 6.73138 11.4149 7.54101 10.8233 8.42144L11.8193 9.09075ZM13.6743 6.90893C13.931 6.69559 14.3472 6.50719 14.9102 6.3603C15.4637 6.21587 16.1109 6.12366 16.7869 6.07155C18.1392 5.96729 19.5461 6.02784 20.4214 6.11505L20.5403 4.92097C19.6108 4.82835 18.1316 4.76431 16.6947 4.8751C15.976 4.93051 15.2527 5.03073 14.6072 5.19918C13.9711 5.36516 13.3596 5.6101 12.9072 5.98609L13.6743 6.90893ZM19.8838 5.5775C19.971 6.45277 20.0316 7.85964 19.9273 9.2121C19.8752 9.88814 19.783 10.5355 19.6386 11.0892C19.4917 11.6523 19.3032 12.0688 19.0898 12.3258L20.0129 13.0925C20.3888 12.6399 20.6337 12.0284 20.7997 11.3921C20.9681 10.7464 21.0684 10.0231 21.1238 9.30434C21.2345 7.86721 21.1705 6.38808 21.0779 5.45852L19.8838 5.5775ZM19.1123 12.3003C18.4519 13.0093 17.7123 13.6402 16.9081 14.1807L17.5774 15.1767C18.4578 14.5851 19.2675 13.8943 19.9904 13.1181L19.1123 12.3003ZM11.2752 17.6462L8.76184 20.1585L9.61019 21.0072L12.1235 18.495L11.2752 17.6462ZM17.267 7.88333L15.9269 9.22341L16.7754 10.0719L18.1155 8.73186L17.267 7.88333Z" fill="white"/>
</svg>
