<svg width="18" height="18" viewBox="0 0 18 18" fill="none" xmlns="http://www.w3.org/2000/svg">
<path d="M9 18C13.9705 18 18 13.9705 18 9C18 4.02945 13.9705 0 9 0C4.02945 0 0 4.02945 0 9C0 13.9705 4.02945 18 9 18Z" fill="#369CFB"/>
<path d="M3.35259 9.44014C4.40468 8.86062 5.57911 8.37694 6.67643 7.89079C8.56426 7.09452 10.4596 6.31204 12.374 5.58357C12.7465 5.45944 13.4158 5.33805 13.4814 5.89005C13.4455 6.6714 13.2977 7.44818 13.1963 8.22495C12.9389 9.93315 12.6414 11.6355 12.3514 13.3381C12.2514 13.9052 11.541 14.1988 11.0864 13.8359C9.99398 13.0979 8.89313 12.3672 7.81463 11.6122C7.46135 11.2532 7.78895 10.7377 8.10447 10.4813C9.00425 9.5946 9.95847 8.84123 10.8112 7.90868C11.0412 7.35319 10.3616 7.82134 10.1374 7.96478C8.90562 8.81363 7.70397 9.7143 6.40527 10.4603C5.7419 10.8255 4.96872 10.5134 4.30565 10.3097C3.71111 10.0635 2.83991 9.81552 3.35253 9.44018L3.35259 9.44014Z" fill="white"/>
</svg>
