<svg width="18" height="18" viewBox="0 0 18 18" fill="none" xmlns="http://www.w3.org/2000/svg">
<g id="Iconly/Bold/Login">
<g id="Login">
<path id="Login_2" fill-rule="evenodd" clip-rule="evenodd" d="M8.91457 1.5H12.694C14.5838 1.5 16.125 3 16.125 4.83V13.17C16.125 15.0075 14.5838 16.5 12.6786 16.5H8.90682C7.01709 16.5 5.46812 15.0075 5.46812 13.1775V9.5775H10.2699L9.03074 10.7775C8.79839 11.0025 8.79839 11.37 9.03074 11.595C9.14691 11.7075 9.30181 11.76 9.45671 11.76C9.60386 11.76 9.75875 11.7075 9.87493 11.595L12.1364 9.4125C12.2526 9.3075 12.3145 9.1575 12.3145 9C12.3145 8.85 12.2526 8.7 12.1364 8.595L9.87493 6.4125C9.64258 6.1875 9.26308 6.1875 9.03074 6.4125C8.79839 6.6375 8.79839 7.005 9.03074 7.23L10.2699 8.4225H5.46812V4.8375C5.46812 3 7.01709 1.5 8.91457 1.5ZM1.875 8.99993C1.875 8.68493 2.14142 8.42243 2.46113 8.42243H5.46789V9.57743H2.46113C2.14142 9.57743 1.875 9.32243 1.875 8.99993Z" fill="white"/>
</g>
</g>
</svg>
